<?xml version="1.0" encoding="UTF-8"?>
<svg width="126px" height="120px" viewBox="0 0 126 120" version="1.1" xmlns="http://www.w3.org/2000/svg" xmlns:xlink="http://www.w3.org/1999/xlink">
    <!-- Generator: Sketch 49 (51002) - http://www.bohemiancoding.com/sketch -->
    <title>Page 1</title>
    <desc>Created with Sketch.</desc>
    <defs>
        <path d="M8.20204812,0.257887438 C11.597478,2.19737771 15.6137844,5.75233866 19.3024937,10.3344828 C23.3348933,15.3437145 26.0806132,20.4678612 27.0550625,24.3350031 L27.0550625,29.1878794 C26.8714529,29.5787373 26.6220716,29.9053955 26.3040837,30.1598276 C23.2948787,32.5681034 15.2810544,27.5953448 8.40450209,19.0536207 C2.29050921,11.4589982 -0.865927902,3.59937807 0.625400687,0.257887438 L8.20204812,0.257887438 Z" id="path-1"></path>
        <path d="M18.9861192,0.257887438 C15.5906893,2.19737771 11.574383,5.75233866 7.88567364,10.3344828 C3.85330222,15.3436795 1.10759249,20.4677896 0.133125261,24.334922 L0.133125261,29.1879229 C0.316732998,29.5787615 0.566107529,29.905405 0.884083682,30.1598276 C3.8932887,32.5681034 11.907113,27.5953448 18.7831464,19.0536207 C24.8976006,11.4589982 28.0536787,3.59937807 26.5626296,0.257887438 L18.9861192,0.257887438 Z" id="path-3"></path>
        <path d="M0.436230962,58.4313001 L0.436230962,0.451889966 C2.56835632,0.185817765 4.93441207,0.0424137931 7.57800837,0.0424137931 L7.6771046,0.0424137931 C20.441841,0.0424137931 26.7362678,3.38586207 31.4685021,7.73844828 C35.4365021,11.3886207 39.4932218,15.4313793 36.6235816,28.0577586 C33.0913975,43.6013793 18.4479833,60.5405172 7.6771046,60.5405172 C5.39380287,60.5405172 2.93195575,59.7792143 0.436230963,58.4313001 Z M7.6771046,0.0424137931 L7.68125523,0.0424137931 L7.6771046,0.0424137931 Z" id="path-5"></path>
    </defs>
    <g id="Page-1" stroke="none" stroke-width="1" fill="none" fill-rule="evenodd">
        <g id="web" transform="translate(-688.000000, -4324.000000)">
            <g id="Page-1" transform="translate(689.000000, 4324.000000)">
                <g id="Group-7" transform="translate(31.129707, 57.778448)">
                    <path d="M31.0245925,61.3164828 C20.395354,61.3164828 5.3353205,44.5159655 1.72583096,28.632 C-1.01721506,16.5616552 2.31573891,12.3357931 6.95769707,8.06596552 C11.1321908,4.22596552 17.24399,0.301137931 30.9254962,0.301137931 L31.0245925,0.301137931 C44.7055799,0.301137931 50.8173791,4.22596552 54.9918728,8.06596552 C59.633831,12.3357931 62.9667849,16.5616552 60.2237389,28.632 C58.5396218,36.0425172 54.1223163,44.3354483 48.4069021,50.8159655 C42.5213121,57.4894138 36.1853791,61.3164828 31.0245925,61.3164828" id="Fill-1" fill="#0F4634"></path>
                    <path d="M31.0245925,0.0423103448 L30.9249774,0.0423103448 C17.1547515,0.0423103448 10.9931448,4.00231034 6.78181423,7.87593103 C3.08256736,11.2788621 -1.52151632,15.5135172 1.47264268,28.6892069 C3.16454226,36.1323103 7.62283515,44.4686897 13.3984335,50.9874828 C19.3602912,57.7157586 25.7844251,61.5748966 31.0245925,61.5748966 C36.2600904,61.5748966 42.6665841,57.7157586 48.6014628,50.9864483 C54.3443749,44.4754138 58.7834711,36.140069 60.4769272,28.6892069 C63.4710862,15.5135172 58.8670025,11.2788621 55.1677556,7.87593103 C50.9564251,4.00231034 44.7948184,0.0423103448 31.0245925,0.0423103448 M31.0245925,0.559551724 C43.78881,0.559551724 50.0832368,3.90248276 54.81599,8.25610345 C58.78399,11.9062759 62.8401908,15.9485172 59.9705506,28.5748966 C56.4383665,44.118 41.7949523,61.0576552 31.0245925,61.0576552 C20.2542326,61.0576552 5.51120335,44.118 1.97901925,28.5748966 C-0.890620921,15.9485172 3.16557992,11.9062759 7.13357992,8.25610345 C11.8663331,3.90248276 18.1607598,0.559551724 30.9249774,0.559551724 L31.0245925,0.559551724" id="Fill-3" fill="#2CD098"></path>
                    <path d="M73.7769908,33.5364828 C80.6530243,42.0782069 88.6673674,47.0504483 91.6765724,44.6426897 C94.6857774,42.234931 91.5510159,33.359069 84.6744636,24.8173448 C77.7984301,16.2756207 69.7846059,11.3033793 66.7754008,13.7111379 C63.7661958,16.1188966 66.9009573,24.9947586 73.7769908,33.5364828" id="Fill-5" fill="#0F4634"></path>
                </g>
                <g id="Group-10" transform="translate(96.502092, 72.261207)">
                    <mask id="mask-2" fill="white">
                        <use xlink:href="#path-1"></use>
                    </mask>
                    <g id="Clip-9"></g>
                    <path d="M0.897573222,0.598189655 C5.51099582,10.4935345 12.1976569,21.710431 24.9099916,28.8907759 C27.8839163,30.5702586 29.2219749,34.5690517 18.9393138,33.939569 C8.65717155,33.3100862 -6.49521339,-3.6525 0.897573222,0.598189655" id="Fill-8" fill="#0A3226" mask="url(#mask-2)"></path>
                </g>
                <g id="Group-41" transform="translate(0.000000, 0.364655)">
                    <path d="M104.906698,90.9502759 C111.782731,99.492 119.797074,104.464241 122.806279,102.056483 C125.815485,99.6487241 122.680723,90.7728621 115.804171,82.2311379 C108.928137,73.6894138 100.914313,68.7171724 97.9051079,71.124931 C94.8959029,73.5326897 98.0306644,82.4085517 104.906698,90.9502759 Z" id="Stroke-11" stroke="#2CD098" stroke-linecap="round" stroke-linejoin="round"></path>
                    <path d="M71.3804703,62.273431 C71.3804703,59.4167069 69.0576753,57.1010172 66.1921858,57.1010172 L58.0170059,57.1010172 C55.1515163,57.1010172 52.8287213,59.4167069 52.8287213,62.273431 L52.8287213,64.2622241 L52.8287213,65.3918793 C52.8287213,66.9880862 56.9814243,68.2817069 62.1048552,68.2817069 C67.2277674,68.2817069 71.3804703,66.9880862 71.3804703,65.3918793 L71.3804703,64.2622241 L71.3804703,62.273431 Z" id="Fill-13" fill="#0A3226"></path>
                    <path d="M71.3804703,62.273431 C71.3804703,59.4167069 69.0576753,57.1010172 66.1921858,57.1010172 L58.0170059,57.1010172 C55.1515163,57.1010172 52.8287213,59.4167069 52.8287213,62.273431 L52.8287213,64.2622241 L52.8287213,65.3918793 C52.8287213,66.9880862 56.9814243,68.2817069 62.1048552,68.2817069 C67.2277674,68.2817069 71.3804703,66.9880862 71.3804703,65.3918793 L71.3804703,64.2622241 L71.3804703,62.273431 Z" id="Stroke-15" stroke="#2CD098"></path>
                    <path d="M30.3269238,20.9294483 C30.1821707,27.8651379 32.646087,40.4361724 32.646087,40.4361724 C32.646087,40.4361724 40.6173674,44.843069 46.3426393,53.2958276 C49.334723,57.7135862 56.2704218,60.3763448 60.618723,60.3763448 C64.9670243,60.3763448 71.4892167,59.2203103 76.2717774,54.3075517 C81.0548569,49.3947931 86.997518,44.1204828 91.2005473,41.7365172 C91.7079615,40.0746207 94.0266059,29.4546207 93.8818527,21.3628966 C89.9688485,18.7622069 84.0422711,11.5601379 81.19961,8.286 C76.9965808,3.44565517 71.923995,0.411517241 62.7931331,0.411517241 C53.6617523,0.411517241 47.5022209,3.22893103 42.8638946,8.71996552 C39.5241958,12.6737586 31.3417523,20.2792759 30.3269238,20.9294483" id="Fill-17" fill="#0F4634"></path>
                    <path d="M30.3269238,20.9294483 C30.1821707,27.8651379 32.646087,40.4361724 32.646087,40.4361724 C32.646087,40.4361724 40.6173674,44.843069 46.3426393,53.2958276 C49.334723,57.7135862 56.2704218,60.3763448 60.618723,60.3763448 C64.9670243,60.3763448 71.4892167,59.2203103 76.2717774,54.3075517 C81.0548569,49.3947931 86.997518,44.1204828 91.2005473,41.7365172 C91.7079615,40.0746207 94.0266059,29.4546207 93.8818527,21.3628966 C89.9688485,18.7622069 84.0422711,11.5601379 81.19961,8.286 C76.9965808,3.44565517 71.923995,0.411517241 62.7931331,0.411517241 C53.6617523,0.411517241 47.5022209,3.22893103 42.8638946,8.71996552 C39.5241958,12.6737586 31.3417523,20.2792759 30.3269238,20.9294483 Z" id="Stroke-19" stroke="#2CD098"></path>
                    <path d="M41.9220134,9.73122414 C45.3276033,11.6093276 47.9321222,16.8443276 52.5745992,17.4613966 C58.009846,18.1839828 68.6629506,18.4731207 72.2138126,17.0279483 C77.2277707,14.9879483 81.2720385,9.94794828 82.8663983,10.1646724" id="Stroke-21" stroke="#135942"></path>
                    <path d="M62.8291916,14.969069 C62.8291916,15.6073448 62.3098444,16.1251034 61.66961,16.1251034 C61.0293757,16.1251034 60.5100285,15.6073448 60.5100285,14.969069 C60.5100285,14.3307931 61.0293757,13.8130345 61.66961,13.8130345 C62.3098444,13.8130345 62.8291916,14.3307931 62.8291916,14.969069" id="Fill-23" fill="#090D0B"></path>
                    <path d="M43.4437891,35.0174483 C44.7481238,36.1734828 54.2483916,36.3229655 55.9081238,34.0057241 C57.3577305,31.9833103 56.9229523,21.4352069 50.0380987,21.5795172 C40.9850611,21.7698621 42.1394544,33.8614138 43.4437891,35.0174483" id="Fill-25" fill="#135942"></path>
                    <path d="M43.4437891,35.0174483 C44.7481238,36.1734828 54.2483916,36.3229655 55.9081238,34.0057241 C57.3577305,31.9833103 56.9229523,21.4352069 50.0380987,21.5795172 C40.9850611,21.7698621 42.1394544,33.8614138 43.4437891,35.0174483 Z" id="Stroke-27" stroke="#2CD098"></path>
                    <path d="M53.8791414,28.7431552 C53.8791414,31.6495345 51.9376854,34.0060862 49.5427732,34.0060862 C47.1478611,34.0060862 45.206405,31.6495345 45.206405,28.7431552 C45.206405,25.8362586 47.1478611,23.4802241 49.5427732,23.4802241 C51.9376854,23.4802241 53.8791414,25.8362586 53.8791414,28.7431552" id="Fill-29" fill="#090D0B"></path>
                    <path d="M79.7587197,35.0174483 C78.4543849,36.1734828 68.9541172,36.3229655 67.2943849,34.0057241 C65.8447782,31.9833103 66.2795565,21.4352069 73.16441,21.5795172 C82.2174477,21.7698621 81.0630544,33.8614138 79.7587197,35.0174483" id="Fill-31" fill="#135942"></path>
                    <path d="M79.7587197,35.0174483 C78.4543849,36.1734828 68.9541172,36.3229655 67.2943849,34.0057241 C65.8447782,31.9833103 66.2795565,21.4352069 73.16441,21.5795172 C82.2174477,21.7698621 81.0630544,33.8614138 79.7587197,35.0174483 Z" id="Stroke-33" stroke="#2CD098"></path>
                    <path d="M77.9387732,28.7431552 C77.9387732,31.6495345 75.9973172,34.0060862 73.602405,34.0060862 C71.2074929,34.0060862 69.2660368,31.6495345 69.2660368,28.7431552 C69.2660368,25.8362586 71.2074929,23.4802241 73.602405,23.4802241 C75.9973172,23.4802241 77.9387732,25.8362586 77.9387732,28.7431552" id="Fill-35" fill="#090D0B"></path>
                    <path d="M57.3817523,46.914 C57.4471247,46.6931379 59.3055682,46.9202069 61.3435264,47.0107241 C63.0831582,47.0872759 64.8461372,46.6491724 65.1844134,47.0345172 C65.4884469,47.3805517 64.1457188,48.7445172 61.2470243,48.7445172 C58.3483297,48.7445172 57.2613841,47.3236552 57.3817523,46.914" id="Fill-37" fill="#090D0B"></path>
                    <path d="M19.3022862,90.9502759 C12.4262527,99.492 4.41242845,104.464241 1.4027046,102.056483 C-1.60650042,99.6487241 1.52826109,90.7728621 8.40481339,82.2311379 C15.2808469,73.6894138 23.2946711,68.7171724 26.3038762,71.124931 C29.3130812,73.5326897 26.1783197,82.4085517 19.3022862,90.9502759" id="Fill-39" fill="#0F4634"></path>
                </g>
                <g id="Group-44" transform="translate(0.518828, 72.261207)">
                    <mask id="mask-4" fill="white">
                        <use xlink:href="#path-3"></use>
                    </mask>
                    <g id="Clip-43"></g>
                    <path d="M26.2908017,0.598189655 C21.6768603,10.4935345 14.990718,21.710431 2.27838326,28.8907759 C-0.695541423,30.5702586 -2.03411883,34.5690517 8.24854226,33.939569 C18.5312033,33.3100862 33.6835883,-3.6525 26.2908017,0.598189655" id="Fill-42" fill="#0A3226" mask="url(#mask-4)"></path>
                </g>
                <path d="M19.3022862,91.314931 C12.4262527,99.8566552 4.41242845,104.828897 1.4027046,102.421138 C-1.60650042,100.013379 1.52826109,91.1375172 8.40481339,82.5957931 C15.2808469,74.054069 23.2946711,69.0818276 26.3038762,71.4895862 C29.3130812,73.8973448 26.1783197,82.7732069 19.3022862,91.314931 Z" id="Stroke-45" stroke="#2CD098" stroke-linecap="round" stroke-linejoin="round"></path>
                <g id="Group-49" transform="translate(54.476987, 58.295690)">
                    <mask id="mask-6" fill="white">
                        <use xlink:href="#path-5"></use>
                    </mask>
                    <g id="Clip-48"></g>
                    <path d="M16.1863063,-1.91627586 C19.299277,0.324931034 22.9310762,2.56665517 25.871277,8.6007931 C31.7210678,20.6080345 22.5850176,49.5492414 0.436230962,59.8076897 C8.8251682,68.0835517 33.2308586,64.2978621 40.1733021,50.1528621 C50.3511598,29.4176897 43.8035448,-2.21575862 16.1863063,-1.91627586" id="Fill-47" fill="#0A3226" mask="url(#mask-6)"></path>
                </g>
            </g>
        </g>
    </g>
</svg>