<?xml version="1.0" encoding="UTF-8"?>
<svg width="61px" height="66px" viewBox="0 0 61 66" version="1.1" xmlns="http://www.w3.org/2000/svg" xmlns:xlink="http://www.w3.org/1999/xlink">
    <!-- Generator: Sketch 49 (51002) - http://www.bohemiancoding.com/sketch -->
    <title>Page 1</title>
    <desc>Created with Sketch.</desc>
    <defs>
        <polygon id="path-1" points="60.1333333 40.3329667 60.1333333 0.611233333 0.000146666667 0.611233333 0.000146666667 40.3329667"></polygon>
        <polygon id="path-3" points="60.1333333 0.000366666667 60.1333333 19.6779 0.000146666667 19.6779 0.000146666667 0.000366666667 60.1333333 0.000366666667"></polygon>
    </defs>
    <g id="Page-1" stroke="none" stroke-width="1" fill="none" fill-rule="evenodd" opacity="0.8">
        <g id="h5" transform="translate(-627.000000, -5729.000000)">
            <g id="Group-8" transform="translate(60.000000, 2420.000000)">
                <g id="Page-1" transform="translate(567.000000, 3309.000000)">
                    <g id="Group-3" transform="translate(0.000000, 25.666300)">
                        <mask id="mask-2" fill="white">
                            <use xlink:href="#path-1"></use>
                        </mask>
                        <g id="Clip-2"></g>
                        <path d="M0.000146666667,0.611233333 L0.000146666667,37.3996333 C0.000146666667,39.0137 1.32014667,40.3329667 2.93348,40.3329667 L57.2001467,40.3329667 C58.81348,40.3329667 60.13348,39.0137 60.13348,37.3996333 L60.13348,0.611233333 L0.000146666667,0.611233333 Z" id="Fill-1" fill="#2CD098" mask="url(#mask-2)"></path>
                    </g>
                    <g id="Group-6" transform="translate(0.000000, 0.732967)">
                        <mask id="mask-4" fill="white">
                            <use xlink:href="#path-3"></use>
                        </mask>
                        <g id="Clip-5"></g>
                        <path d="M57.2001467,6.60036667 L46.2001467,6.60036667 L46.2001467,2.9337 C46.2001467,1.31376667 44.8867467,0.000366666667 43.2668133,0.000366666667 C41.64688,0.000366666667 40.33348,1.31376667 40.33348,2.9337 L40.33348,6.60036667 L19.8001467,6.60036667 L19.8001467,2.9337 C19.8001467,1.31376667 18.4867467,0.000366666667 16.8668133,0.000366666667 C15.24688,0.000366666667 13.93348,1.31376667 13.93348,2.9337 L13.93348,6.60036667 L2.93348,6.60036667 C1.32014667,6.60036667 0.000146666667,7.92036667 0.000146666667,9.5337 L0.000146666667,19.6779 L60.13348,19.6779 L60.13348,9.5337 C60.13348,7.92036667 58.81348,6.60036667 57.2001467,6.60036667" id="Fill-4" fill="#2CD098" mask="url(#mask-4)"></path>
                    </g>
                </g>
            </g>
        </g>
    </g>
</svg>