<?xml version="1.0" encoding="UTF-8"?>
<svg width="50px" height="56px" viewBox="0 0 50 56" version="1.1" xmlns="http://www.w3.org/2000/svg" xmlns:xlink="http://www.w3.org/1999/xlink">
    <!-- Generator: Sketch 49 (51002) - http://www.bohemiancoding.com/sketch -->
    <title>Page 1</title>
    <desc>Created with Sketch.</desc>
    <defs>
        <polygon id="path-1" points="0.000125 56 50 56 50 0.000311111111 0.000125 0.000311111111"></polygon>
    </defs>
    <g id="Page-1" stroke="none" stroke-width="1" fill="none" fill-rule="evenodd" opacity="0.8">
        <g id="web" transform="translate(-236.000000, -832.000000)">
            <g id="Page-1" transform="translate(236.000000, 832.000000)">
                <path d="M43.964375,37.3336444 L33.75,37.3336444 C32.36875,37.3336444 31.25,38.4474222 31.25,39.8225333 L31.25,49.9908889 C31.25,51.4916889 32.4825,52.4853778 33.768125,52.4853778 C34.381875,52.4853778 35.00875,52.2582667 35.5175,51.7511556 L45.731875,41.5821778 C47.3075,40.0148 46.19125,37.3336444 43.964375,37.3336444" id="Fill-1" fill="#2CD098"></path>
                <g id="Group-5">
                    <mask id="mask-2" fill="white">
                        <use xlink:href="#path-1"></use>
                    </mask>
                    <g id="Clip-4"></g>
                    <path d="M16.875125,36.7108 L9.375125,36.7108 C7.9945,36.7108 6.875125,35.5964 6.875125,34.2219111 C6.875125,32.8474222 7.9945,31.7330222 9.375125,31.7330222 L16.875125,31.7330222 C18.25575,31.7330222 19.375125,32.8474222 19.375125,34.2219111 C19.375125,35.5964 18.25575,36.7108 16.875125,36.7108 Z M9.375125,19.2885778 L26.875125,19.2885778 C28.25575,19.2885778 29.375125,20.4029778 29.375125,21.7774667 C29.375125,23.1519556 28.25575,24.2663556 26.875125,24.2663556 L9.375125,24.2663556 C7.9945,24.2663556 6.875125,23.1519556 6.875125,21.7774667 C6.875125,20.4029778 7.9945,19.2885778 9.375125,19.2885778 Z M9.375125,6.84413333 L40.625125,6.84413333 C42.00575,6.84413333 43.125125,7.95853333 43.125125,9.33302222 C43.125125,10.7075111 42.00575,11.8219111 40.625125,11.8219111 L9.375125,11.8219111 C7.9945,11.8219111 6.875125,10.7075111 6.875125,9.33302222 C6.875125,7.95853333 7.9945,6.84413333 9.375125,6.84413333 Z M26.250125,39.8225333 C26.250125,35.6984444 29.607625,32.3558667 33.750125,32.3558667 L47.500125,32.3558667 C48.88075,32.3558667 50.000125,31.2414667 50.000125,29.8669778 L50.000125,2.4892 C50.000125,1.12031111 48.875125,0.000311111111 47.500125,0.000311111111 L2.500125,0.000311111111 C1.125125,0.000311111111 0.000125,1.12031111 0.000125,2.4892 L0.000125,53.5114222 C0.000125,54.8796889 1.125125,56.0003111 2.500125,56.0003111 L23.750125,56.0003111 C25.13075,56.0003111 26.250125,54.8859111 26.250125,53.5114222 L26.250125,39.8225333 Z" id="Fill-3" fill="#2CD098" mask="url(#mask-2)"></path>
                </g>
            </g>
        </g>
    </g>
</svg>