<?xml version="1.0" encoding="UTF-8"?>
<svg width="39px" height="44px" viewBox="0 0 39 44" version="1.1" xmlns="http://www.w3.org/2000/svg" xmlns:xlink="http://www.w3.org/1999/xlink">
    <!-- Generator: Sketch 49 (51002) - http://www.bohemiancoding.com/sketch -->
    <title>Page 1</title>
    <desc>Created with Sketch.</desc>
    <defs></defs>
    <g id="Page-1" stroke="none" stroke-width="1" fill="none" fill-rule="evenodd">
        <g id="web" transform="translate(-970.000000, -1752.000000)" fill="#2CD098">
            <g id="Page-1" transform="translate(970.000000, 1752.000000)">
                <path d="M13.1625,27.8666667 L7.3125,27.8666667 C6.2356125,27.8666667 5.3625,26.9910667 5.3625,25.9111111 C5.3625,24.8311556 6.2356125,23.9555556 7.3125,23.9555556 L13.1625,23.9555556 C14.2393875,23.9555556 15.1125,24.8311556 15.1125,25.9111111 C15.1125,26.9910667 14.2393875,27.8666667 13.1625,27.8666667 M7.3125,14.6666667 L31.6875,14.6666667 C32.7643875,14.6666667 33.6375,15.5422667 33.6375,16.6222222 C33.6375,17.7021778 32.7643875,18.5777778 31.6875,18.5777778 L7.3125,18.5777778 C6.2356125,18.5777778 5.3625,17.7021778 5.3625,16.6222222 C5.3625,15.5422667 6.2356125,14.6666667 7.3125,14.6666667 M7.3125,5.37777778 L31.6875,5.37777778 C32.7643875,5.37777778 33.6375,6.25337778 33.6375,7.33333333 C33.6375,8.41328889 32.7643875,9.28888889 31.6875,9.28888889 L7.3125,9.28888889 C6.2356125,9.28888889 5.3625,8.41328889 5.3625,7.33333333 C5.3625,6.25337778 6.2356125,5.37777778 7.3125,5.37777778 M20.475,36.6666667 C20.475,30.4563111 25.495275,25.4222222 31.6875,25.4222222 C34.4823375,25.4222222 37.0368375,26.4503556 39,28.1463111 L39,1.95555556 C39,0.88 38.1225,0 37.05,0 L1.95,0 C0.8775,0 0,0.88 0,1.95555556 L0,42.0444444 C0,43.12 0.8775,44 1.95,44 L23.19135,44 C21.5002125,42.0312444 20.475,39.4694667 20.475,36.6666667" id="Fill-1"></path>
                <path d="M35.85504,36.15436 L34.30869,37.6664933 C34.19364,37.7784489 34.14099,37.9402711 34.16829,38.09916 L34.5334275,40.2341378 C34.6016775,40.6330711 34.1834025,40.9376489 33.826065,40.7489378 L31.91409,39.7413378 C31.7722275,39.6665378 31.6025775,39.6665378 31.460715,39.7413378 L29.54874,40.7489378 C29.1914025,40.9376489 28.773615,40.6330711 28.8413775,40.2341378 L29.206515,38.09916 C29.233815,37.9402711 29.1816525,37.7784489 29.066115,37.6664933 L27.519765,36.15436 C27.2306775,35.8717822 27.39009,35.3784933 27.78984,35.3203156 L29.9275275,35.0088933 C30.085965,34.9859156 30.22344,34.8856933 30.294615,34.7414711 L31.2506025,32.7996044 C31.4290275,32.4358711 31.9457775,32.4358711 32.12469,32.7996044 L33.0806775,34.7414711 C33.151365,34.8856933 33.28884,34.9859156 33.447765,35.0088933 L35.584965,35.3203156 C35.9852025,35.3784933 36.144615,35.8717822 35.85504,36.15436 M31.6874025,29.3333822 C27.65529,29.3333822 24.3749025,32.6226267 24.3749025,36.6667156 C24.3749025,40.7103156 27.65529,44.0000489 31.6874025,44.0000489 C35.7200025,44.0000489 38.9999025,40.7103156 38.9999025,36.6667156 C38.9999025,32.6226267 35.7200025,29.3333822 31.6874025,29.3333822" id="Fill-3"></path>
            </g>
        </g>
    </g>
</svg>