<?xml version="1.0" encoding="UTF-8"?>
<svg width="101px" height="111px" viewBox="0 0 101 111" version="1.1" xmlns="http://www.w3.org/2000/svg" xmlns:xlink="http://www.w3.org/1999/xlink">
    <!-- Generator: Sketch 49 (51002) - http://www.bohemiancoding.com/sketch -->
    <title>Page 1</title>
    <desc>Created with Sketch.</desc>
    <defs>
        <path d="M13.672592,3.64020913 C13.7023783,3.56331726 13.7267999,3.48354711 13.7453782,3.401327 L14.3247899,0.846638783 C14.368509,0.569303167 14.3426724,0.299228921 14.26131,0.052756654 L0.105042017,0.052756654 L0.105042017,3.64020913 L13.672592,3.64020913 Z" id="path-1"></path>
        <path d="M12.9011937,14.2970532 C12.905174,14.2607834 12.9080089,14.2241921 12.9096639,14.1873194 L13.4676471,1.84563878 C13.5034598,1.12254036 13.0806695,0.482283414 12.454624,0.211026616 L0.262605042,0.211026616 L0.262605042,14.2970532 L12.9011937,14.2970532 Z" id="path-3"></path>
        <path d="M10.274148,2.42680608 C10.2333572,2.36523742 10.188413,2.30614487 10.1394958,2.24996578 L8.80042017,0.715802281 C8.48109244,0.350304183 8.02058824,0.140965779 7.53697479,0.140965779 L0.105042017,0.140965779 L0.105042017,2.42680608 L10.274148,2.42680608 Z" id="path-5"></path>
        <path d="M2.44943309,0.211026616 C1.21201196,2.14839788 0.256302521,14.8927341 0.256302521,30.335076 C0.256302521,45.0382971 1.12271465,57.2956024 2.27376208,60.1075551 L29.6218487,60.1075551 L29.6218487,0.211026616 L2.44943309,0.211026616 Z" id="path-7"></path>
        <polygon id="path-9" points="0 110.577947 99.6323529 110.577947 99.6323529 0.316539924 0 0.316539924"></polygon>
    </defs>
    <g id="Page-1" stroke="none" stroke-width="1" fill="none" fill-rule="evenodd">
        <g id="web" transform="translate(-135.000000, -2353.000000)">
            <g id="Page-1" transform="translate(136.000000, 2353.000000)">
                <path d="M86.4846639,39.0751654 L94.5115546,39.0751654 C94.9955882,39.0751654 95.4560924,39.2849259 95.775,39.650424 L97.1140756,41.1841654 C97.372479,41.4804468 97.519958,41.8581844 97.5304622,42.2519601 L97.9006303,55.0473479 C97.9207983,55.7441578 97.5128151,56.3818802 96.8728992,56.6519943 L90.6161765,59.2986901 L97.1829832,59.6916217 C98.1031513,59.7464886 98.8077731,60.5357281 98.7619748,61.4608688 L98.2039916,73.8021274 C98.1691176,74.5791274 97.6102941,75.2311996 96.8506303,75.3818726 L95.4834034,75.6532529 L95.2703782,76.2749373 C95.1653361,76.5826141 94.8930672,76.8020817 94.5712185,76.8392224 L89.2859244,77.4469791 L94.5518908,79.4226103 C94.880042,79.5458498 95.0981092,79.8607015 95.0981092,80.213116 L95.0981092,83.8478384 L96.6817227,83.8322224 C97.7216387,83.8220932 98.5207983,84.7535646 98.3581933,85.7850627 L97.7792017,88.339751 C97.6203782,89.0407814 97.0371849,89.5637053 96.3258403,89.6430513 L95.3081933,89.7565837 L96.0287815,90.2394125 C96.237605,90.3791122 96.3733193,90.6053327 96.3985294,90.8560323 L97.1397059,98.1807662 C97.1901261,98.678789 96.8002101,99.1113935 96.3018908,99.1101274 L84.7594538,99.0852262 C83.8628151,99.0805837 83.127521,98.369846 83.0884454,97.4700285 L82.3531513,86.5211236 L86.4846639,39.0751654 Z" id="Fill-1" fill="#0A3226"></path>
                <g id="Group-14" transform="translate(84.033613, 38.934411)">
                    <g id="Group-5" transform="translate(0.000000, 46.003802)">
                        <mask id="mask-2" fill="white">
                            <use xlink:href="#path-1"></use>
                        </mask>
                        <g id="Clip-4"></g>
                        <polygon id="Fill-3" fill="#135942" mask="url(#mask-2)" points="0.105042017 1.00237643 1.10294118 2.6378327 14.1281513 3.64020913 15.3886555 0.422053232 1.8907563 0.052756654"></polygon>
                    </g>
                    <polygon id="Fill-6" fill="#135942" points="13.9705882 59.0874525 9.13865546 58.9291825 9.24369748 56.713403 8.1407563 55.7637833 13.6029412 55.65827"></polygon>
                    <g id="Group-10" transform="translate(1.260504, 20.680608)">
                        <mask id="mask-4" fill="white">
                            <use xlink:href="#path-3"></use>
                        </mask>
                        <g id="Clip-9"></g>
                        <polygon id="Fill-8" fill="#135942" mask="url(#mask-4)" points="13.0252101 14.2970532 2.36344538 13.4001901 0.472689076 14.03327 0.262605042 2.53231939 0.99789916 2.79610266 1.31302521 2.00475285 14.3382353 0.211026616"></polygon>
                    </g>
                    <g id="Group-13" transform="translate(2.941176, 0.000000)">
                        <mask id="mask-6" fill="white">
                            <use xlink:href="#path-5"></use>
                        </mask>
                        <g id="Clip-12"></g>
                        <polygon id="Fill-11" fill="#135942" mask="url(#mask-6)" points="11.2920168 2.42680608 0.367647059 1.52994297 0.105042017 0.26378327 9.13865546 0"></polygon>
                    </g>
                </g>
                <g id="Group-25" transform="translate(0.000000, 35.135932)">
                    <path d="M6.17121849,0.406606084 L3.96533613,0.406606084 L3.96533613,0.40745019 C1.89096639,0.430663118 0.20987395,15.0159787 0.20987395,33.0064198 C0.20987395,50.9964388 1.89096639,65.5821764 3.96533613,65.6049673 L3.96533613,65.6058114 L3.96995798,65.6058114 C3.96995798,65.6058114 3.96995798,65.6058114 3.97037815,65.6058114 C3.97037815,65.6058114 3.97037815,65.6058114 3.97037815,65.6058114 L6.17121849,65.6058114 L6.17121849,0.406606084 Z" id="Fill-15" fill="#135942"></path>
                    <path d="M6.17121849,0.406606084 L3.96533613,0.406606084 L3.96533613,0.40745019 C1.89096639,0.430663118 0.20987395,15.0159787 0.20987395,33.0064198 C0.20987395,50.9964388 1.89096639,65.5821764 3.96533613,65.6049673 L3.96533613,65.6058114 L3.96995798,65.6058114 C3.96995798,65.6058114 3.96995798,65.6058114 3.97037815,65.6058114 C3.97037815,65.6058114 3.97037815,65.6058114 3.97037815,65.6058114 L6.17121849,65.6058114 L6.17121849,0.406606084 Z" id="Stroke-17" stroke="#2CD098"></path>
                    <path d="M9.83105042,33.0062932 C9.83105042,51.010662 8.14785714,65.6061068 6.07096639,65.6061068 C3.9944958,65.6061068 2.31088235,51.010662 2.31088235,33.0062932 C2.31088235,15.0019243 3.9944958,0.406479468 6.07096639,0.406479468 C8.14785714,0.406479468 9.83105042,15.0019243 9.83105042,33.0062932" id="Fill-19" fill="#0A3226"></path>
                    <path d="M9.83105042,33.0062932 C9.83105042,51.010662 8.14785714,65.6061068 6.07096639,65.6061068 C3.9944958,65.6061068 2.31088235,51.010662 2.31088235,33.0062932 C2.31088235,15.0019243 3.9944958,0.406479468 6.07096639,0.406479468 C8.14785714,0.406479468 9.83105042,15.0019243 9.83105042,33.0062932 Z" id="Stroke-21" stroke="#2CD098"></path>
                    <path d="M6.09243697,2.47956274 L6.09243697,2.49349049 C4.72142857,2.79230418 3.61764706,16.2718403 3.61764706,32.8673954 C3.61764706,49.4629506 4.72142857,62.9424867 6.09243697,63.2413004 L6.09243697,63.2552281 L32.9831933,63.2552281 L32.9831933,2.47956274 L6.09243697,2.47956274 Z" id="Fill-23" fill="#0A3226"></path>
                </g>
                <g id="Group-42" transform="translate(3.361345, 37.668251)">
                    <mask id="mask-8" fill="white">
                        <use xlink:href="#path-7"></use>
                    </mask>
                    <g id="Clip-27"></g>
                    <polygon id="Fill-26" fill="#135942" mask="url(#mask-8)" points="-1.47058824 1.47718631 29.9021008 1.47718631 29.9021008 0.211026616 -1.47058824 0.211026616"></polygon>
                    <polygon id="Fill-28" fill="#135942" mask="url(#mask-8)" points="-1.47058824 4.11501901 29.9021008 4.11501901 29.9021008 2.84885932 -1.47058824 2.84885932"></polygon>
                    <polygon id="Fill-29" fill="#135942" mask="url(#mask-8)" points="-1.47058824 7.7375019 29.9021008 7.7375019 29.9021008 6.47134221 -1.47058824 6.47134221"></polygon>
                    <polygon id="Fill-30" fill="#135942" mask="url(#mask-8)" points="-1.47058824 11.4304677 29.9021008 11.4304677 29.9021008 10.164308 -1.47058824 10.164308"></polygon>
                    <polygon id="Fill-31" fill="#135942" mask="url(#mask-8)" points="-1.47058824 15.9675399 29.9021008 15.9675399 29.9021008 14.7013802 -1.47058824 14.7013802"></polygon>
                    <polygon id="Fill-32" fill="#135942" mask="url(#mask-8)" points="-1.47058824 20.2235247 29.9021008 20.2235247 29.9021008 18.957365 -1.47058824 18.957365"></polygon>
                    <polygon id="Fill-33" fill="#135942" mask="url(#mask-8)" points="-1.47058824 25.3231939 29.9021008 25.3231939 29.9021008 24.0570342 -1.47058824 24.0570342"></polygon>
                    <polygon id="Fill-34" fill="#135942" mask="url(#mask-8)" points="-1.47058824 30.7748555 29.9021008 30.7748555 29.9021008 29.5086958 -1.47058824 29.5086958"></polygon>
                    <polygon id="Fill-35" fill="#135942" mask="url(#mask-8)" points="-1.47058824 60.1075551 29.9021008 60.1075551 29.9021008 58.8413954 -1.47058824 58.8413954"></polygon>
                    <polygon id="Fill-36" fill="#135942" mask="url(#mask-8)" points="-1.47058824 57.4697224 29.9021008 57.4697224 29.9021008 56.2035627 -1.47058824 56.2035627"></polygon>
                    <polygon id="Fill-37" fill="#135942" mask="url(#mask-8)" points="-1.47058824 53.8468175 29.9021008 53.8468175 29.9021008 52.5806578 -1.47058824 52.5806578"></polygon>
                    <polygon id="Fill-38" fill="#135942" mask="url(#mask-8)" points="-1.47058824 50.1538517 29.9021008 50.1538517 29.9021008 48.887692 -1.47058824 48.887692"></polygon>
                    <polygon id="Fill-39" fill="#135942" mask="url(#mask-8)" points="-1.47058824 45.6167795 29.9021008 45.6167795 29.9021008 44.3506198 -1.47058824 44.3506198"></polygon>
                    <polygon id="Fill-40" fill="#135942" mask="url(#mask-8)" points="-1.47058824 41.3612167 29.9021008 41.3612167 29.9021008 40.095057 -1.47058824 40.095057"></polygon>
                    <polygon id="Fill-41" fill="#135942" mask="url(#mask-8)" points="-1.47058824 36.2615475 29.9021008 36.2615475 29.9021008 34.9953878 -1.47058824 34.9953878"></polygon>
                </g>
                <g id="Group-69" transform="translate(0.000000, 0.105513)">
                    <path d="M34.2787815,35.4370243 L33.0182773,35.4370243 L33.0182773,35.4441992 C33.0115546,35.4433551 33.0052521,35.4370243 32.9985294,35.4370243 C31.7140756,35.4370243 30.672479,50.0324692 30.672479,68.036838 C30.672479,86.0407848 31.7140756,100.63623 32.9985294,100.63623 C33.0052521,100.63623 33.0115546,100.630321 33.0182773,100.629477 L33.0182773,100.63623 L34.2787815,100.63623 L34.2787815,35.4370243 Z" id="Fill-43" fill="#135942"></path>
                    <path d="M34.2787815,35.4370243 L33.0182773,35.4370243 L33.0182773,35.4441992 C33.0115546,35.4433551 33.0052521,35.4370243 32.9985294,35.4370243 C31.7140756,35.4370243 30.672479,50.0324692 30.672479,68.036838 C30.672479,86.0407848 31.7140756,100.63623 32.9985294,100.63623 C33.0052521,100.63623 33.0115546,100.630321 33.0182773,100.629477 L33.0182773,100.63623 L34.2787815,100.63623 L34.2787815,35.4370243 Z" id="Stroke-45" stroke="#2CD098"></path>
                    <path d="M36.6245798,68.0367114 C36.6245798,86.0410802 35.5829832,100.636525 34.2981092,100.636525 C33.0136555,100.636525 31.9720588,86.0410802 31.9720588,68.0367114 C31.9720588,50.0323426 33.0136555,35.4368977 34.2981092,35.4368977 C35.5829832,35.4368977 36.6245798,50.0323426 36.6245798,68.0367114" id="Fill-47" fill="#0F4634"></path>
                    <path d="M36.6245798,68.0367114 C36.6245798,86.0410802 35.5829832,100.636525 34.2981092,100.636525 C33.0136555,100.636525 31.9720588,86.0410802 31.9720588,68.0367114 C31.9720588,50.0323426 33.0136555,35.4368977 34.2981092,35.4368977 C35.5829832,35.4368977 36.6245798,50.0323426 36.6245798,68.0367114 Z" id="Stroke-49" stroke="#2CD098"></path>
                    <path d="M53.9915966,14.5608365 L53.9915966,44.3155894 L42.0168067,44.3155894 L38.9705882,46.9534221 L34.6638655,46.8479087 L33.1584034,43.8230532 C33.1584034,43.8230532 32.7731092,50.3298479 32.7731092,66.473384 C32.7731092,90.4249049 33.0533613,93.3087947 33.0533613,93.3087947 L34.0336134,89.6863118 L38.9705882,89.6863118 L41.5966387,92.1131179 L61.9747899,92.1131179 L61.9747899,14.5608365 L53.9915966,14.5608365 Z" id="Fill-51" fill="#0A3226"></path>
                    <path d="M53.9915966,14.5608365 L53.9915966,44.3155894 L42.0168067,44.3155894 L38.9705882,46.9534221 L34.6638655,46.8479087 L33.1584034,43.8230532 C33.1584034,43.8230532 32.7731092,50.3298479 32.7731092,66.473384 C32.7731092,90.4249049 33.0533613,93.3087947 33.0533613,93.3087947 L34.0336134,89.6863118 L38.9705882,89.6863118 L41.5966387,92.1131179 L61.9747899,92.1131179 L61.9747899,14.5608365 L53.9915966,14.5608365 Z" id="Stroke-53" stroke="#2CD098" stroke-linecap="round" stroke-linejoin="round"></path>
                    <polygon id="Fill-55" fill="#0F4634" points="38.8655462 47.0589354 41.5966387 50.6463878 38.6554622 59.5095057"></polygon>
                    <polygon id="Fill-57" fill="#0F4634" points="38.8655462 79.4515209 41.5966387 75.8640684 38.6554622 67.0009506"></polygon>
                    <polygon id="Fill-59" fill="#0F4634" points="74.3697479 101.961097 77.8710084 100.13234 81.2323529 100.13234 87.8151261 32.8849106 87.6752101 15.2996407 79.1315126 15.1586749 74.3697479 13.470462"></polygon>
                    <mask id="mask-10" fill="white">
                        <use xlink:href="#path-9"></use>
                    </mask>
                    <g id="Clip-62"></g>
                    <polygon id="Fill-61" fill="#0A3226" mask="url(#mask-10)" points="70.7281513 101.820342 74.3697479 101.820342 74.3697479 13.470673 70.7281513 13.470673"></polygon>
                    <path d="M63.0252101,4.85361217 L61.7647059,4.85361217 L58.9285714,4.85361217 L58.9285714,2.21577947 C58.9285714,1.28346388 58.1760504,0.52756654 57.2478992,0.52756654 L55.6722689,0.52756654 C54.7441176,0.52756654 53.9915966,1.28346388 53.9915966,2.21577947 L53.9915966,17.3041825 C53.9915966,18.2364981 54.7441176,18.9923954 55.6722689,18.9923954 L61.7647059,18.9923954 L61.7647059,110.36692 L68.907563,110.36692 L68.907563,6.5418251 C68.907563,5.60950951 68.155042,4.85361217 67.2268908,4.85361217 L63.0252101,4.85361217 Z" id="Fill-63" fill="#0F4634" mask="url(#mask-10)"></path>
                    <path d="M63.0252101,4.85361217 L61.7647059,4.85361217 L58.9285714,4.85361217 L58.9285714,2.21577947 C58.9285714,1.28346388 58.1760504,0.52756654 57.2478992,0.52756654 L55.6722689,0.52756654 C54.7441176,0.52756654 53.9915966,1.28346388 53.9915966,2.21577947 L53.9915966,17.3041825 C53.9915966,18.2364981 54.7441176,18.9923954 55.6722689,18.9923954 L61.7647059,18.9923954 L61.7647059,110.36692 L68.907563,110.36692 L68.907563,6.5418251 C68.907563,5.60950951 68.155042,4.85361217 67.2268908,4.85361217 L63.0252101,4.85361217 Z" id="Stroke-64" stroke="#2CD098" mask="url(#mask-10)"></path>
                    <polygon id="Fill-65" fill="#0A3226" mask="url(#mask-10)" points="68.960084 9.65446768 71.0609244 13.470673 71.0609244 101.820342 68.855042 105.777091"></polygon>
                    <polygon id="Stroke-66" stroke="#2CD098" stroke-linecap="round" stroke-linejoin="round" mask="url(#mask-10)" points="87.675 15.2994297 79.1317227 15.1588859 74.3695378 13.470673 71.0607143 13.470673 68.9598739 9.65446768 68.8548319 105.777091 71.0607143 101.820342 74.3695378 101.820342 74.3695378 101.960886 77.8712185 100.132129 81.232563 100.132129 87.814916 32.8851217"></polygon>
                    <path d="M6.09243697,37.509981 L6.09243697,37.5239087 C4.72142857,37.8227224 3.61764706,51.3022586 3.61764706,67.8978137 C3.61764706,84.4933688 4.72142857,97.9729049 6.09243697,98.2717186 L6.09243697,98.2856464 L32.9831933,98.2856464 L32.9831933,37.509981 L6.09243697,37.509981 Z" id="Stroke-67" stroke="#2CD098" stroke-linecap="round" stroke-linejoin="round" mask="url(#mask-10)"></path>
                    <path d="M86.4846639,38.9696521 L94.5115546,38.9696521 C94.9955882,38.9696521 95.4560924,39.1794125 95.775,39.5449106 L97.1140756,41.0786521 C97.372479,41.3749335 97.519958,41.7526711 97.5304622,42.1464468 L97.9006303,54.9418346 C97.9207983,55.6386445 97.5128151,56.2763669 96.8728992,56.546481 L90.6161765,59.1931768 L97.1829832,59.5861084 C98.1031513,59.6409753 98.8077731,60.4302148 98.7619748,61.3553555 L98.2039916,73.6966141 C98.1691176,74.4736141 97.6102941,75.1256863 96.8506303,75.2763593 L95.4834034,75.5477395 L95.2703782,76.169424 C95.1653361,76.4771008 94.8930672,76.6965684 94.5712185,76.7337091 L89.2859244,77.3414658 L94.5518908,79.317097 C94.880042,79.4403365 95.0981092,79.7551882 95.0981092,80.1076027 L95.0981092,83.7423251 L96.6817227,83.7267091 C97.7216387,83.7165798 98.5207983,84.6480513 98.3581933,85.6795494 L97.7792017,88.2342376 C97.6203782,88.9352681 97.0371849,89.458192 96.3258403,89.537538 L95.3081933,89.6510703 L96.0287815,90.1338992 C96.237605,90.2735989 96.3733193,90.4998194 96.3985294,90.750519 L97.1397059,98.0752529 C97.1901261,98.5732757 96.8002101,99.0058802 96.3018908,99.0046141 L84.7594538,98.9797129 C83.8628151,98.9750703 83.127521,98.2643327 83.0884454,97.3645152 L82.6329832,86.8376635 L86.4846639,38.9696521 Z" id="Stroke-68" stroke="#2CD098" stroke-linecap="round" stroke-linejoin="round" mask="url(#mask-10)"></path>
                </g>
            </g>
        </g>
    </g>
</svg>