<?xml version="1.0" encoding="UTF-8"?>
<svg width="44px" height="40px" viewBox="0 0 44 40" version="1.1" xmlns="http://www.w3.org/2000/svg" xmlns:xlink="http://www.w3.org/1999/xlink">
    <!-- Generator: Sketch 49 (51002) - http://www.bohemiancoding.com/sketch -->
    <title>Page 1</title>
    <desc>Created with Sketch.</desc>
    <defs>
        <polygon id="path-1" points="0 8.26897561 0 0.464097561 43.9998044 0.464097561 43.9998044 8.26897561"></polygon>
    </defs>
    <g id="Page-1" stroke="none" stroke-width="1" fill="none" fill-rule="evenodd">
        <g id="web" transform="translate(-703.000000, -1476.000000)">
            <g id="Page-1" transform="translate(703.000000, 1476.000000)">
                <g id="Group-3" transform="translate(0.000000, 0.023707)">
                    <mask id="mask-2" fill="white">
                        <use xlink:href="#path-1"></use>
                    </mask>
                    <g id="Clip-2"></g>
                    <path d="M42.0442489,0.464097561 L1.95536,0.464097561 C0.879804444,0.464097561 -0.000195555556,1.34214634 -0.000195555556,2.41531707 L-0.000195555556,8.26897561 L43.9998044,8.26897561 L43.9998044,2.41531707 C43.9998044,1.34214634 43.1198044,0.464097561 42.0442489,0.464097561" id="Fill-1" fill="#2CD098" mask="url(#mask-2)"></path>
                </g>
                <g id="Group-6" transform="translate(0.000000, 12.218829)" fill="#2CD098">
                    <path d="M36.8450622,15.7713659 L31.9204844,20.6850244 C31.5386622,21.066 31.03804,21.2567317 30.5379067,21.2567317 C30.0372844,21.2567317 29.5366622,21.066 29.1553289,20.6850244 C28.3911956,19.923561 28.3911956,18.6879512 29.1553289,17.926 L33.2439067,13.846 L29.1553289,9.7655122 C28.3911956,9.00404878 28.3911956,7.76843902 29.1553289,7.0064878 C29.9179956,6.24453659 31.1573289,6.24453659 31.9204844,7.0064878 L36.8450622,11.9201463 C37.9093733,12.9820976 37.9093733,14.7094146 36.8450622,15.7713659 Z M25.8377289,8.6864878 L21.8312844,19.5372195 C21.5399067,20.326 20.7923956,20.8142927 19.9964844,20.8142927 C19.7715956,20.8142927 19.5432844,20.7757561 19.3203511,20.6933171 C18.3068844,20.3206341 17.7886622,19.1991707 18.1616844,18.1879512 L22.1681289,7.33721951 C22.54164,6.326 23.6675511,5.80795122 24.6790622,6.18112195 C25.6925289,6.55380488 26.21124,7.67478049 25.8377289,8.6864878 Z M14.8450622,17.926 C15.6087067,18.6879512 15.6087067,19.923561 14.8450622,20.6850244 C14.4637289,21.066 13.9626178,21.2567317 13.4624844,21.2567317 C12.9618622,21.2567317 12.46124,21.066 12.0799067,20.6850244 L7.15532889,15.7713659 C6.09101778,14.7094146 6.09101778,12.9820976 7.15532889,11.9201463 L12.0799067,7.0064878 C12.8425733,6.24453659 14.0819067,6.24453659 14.8450622,7.0064878 C15.6087067,7.76843902 15.6087067,9.00404878 14.8450622,9.7655122 L10.7564844,13.846 L14.8450622,17.926 Z M-4.88888889e-05,0.000146341463 L-4.88888889e-05,25.366 C-4.88888889e-05,26.4386829 0.879951111,27.3172195 1.95550667,27.3172195 L42.0443956,27.3172195 C43.1199511,27.3172195 43.9999511,26.4386829 43.9999511,25.366 L43.9999511,0.000146341463 L-4.88888889e-05,0.000146341463 Z" id="Fill-4"></path>
                </g>
            </g>
        </g>
    </g>
</svg>