<?xml version="1.0" encoding="UTF-8"?>
<svg width="44px" height="44px" viewBox="0 0 44 44" version="1.1" xmlns="http://www.w3.org/2000/svg" xmlns:xlink="http://www.w3.org/1999/xlink">
    <!-- Generator: Sketch 49 (51002) - http://www.bohemiancoding.com/sketch -->
    <title>Page 1</title>
    <desc>Created with Sketch.</desc>
    <defs></defs>
    <g id="Page-1" stroke="none" stroke-width="1" fill="none" fill-rule="evenodd">
        <g id="web" transform="translate(-703.000000, -1752.000000)" fill="#2CD098">
            <g id="Page-1" transform="translate(703.000000, 1752.000000)">
                <path d="M41.6575867,11.4683556 L23.0798089,11.4683556 C21.9998533,11.4683556 21.1242533,12.3439556 21.1242533,13.4239111 C21.1242533,14.5038667 21.9998533,15.3794667 23.0798089,15.3794667 L41.6575867,15.3794667 C42.7375422,15.3794667 43.6131422,14.5038667 43.6131422,13.4239111 C43.6131422,12.3439556 42.7375422,11.4683556 41.6575867,11.4683556" id="Fill-4"></path>
                <path d="M41.6575867,28.5388889 L23.0798089,28.5388889 C21.9998533,28.5388889 21.1242533,29.4144889 21.1242533,30.4944444 C21.1242533,31.5744 21.9998533,32.45 23.0798089,32.45 L41.6575867,32.45 C42.7375422,32.45 43.6131422,31.5744 43.6131422,30.4944444 C43.6131422,29.4144889 42.7375422,28.5388889 41.6575867,28.5388889" id="Fill-9"></path>
                <path d="M4.39990222,9.28888889 C6.12665778,9.28888889 7.61679111,8.29204444 8.33741333,6.84444444 L41.6576356,6.84444444 C42.7375911,6.84444444 43.6131911,5.96884444 43.6131911,4.88888889 C43.6131911,3.80893333 42.7375911,2.93333333 41.6576356,2.93333333 L8.33741333,2.93333333 C7.61679111,1.48573333 6.12665778,0.488888889 4.39990222,0.488888889 C1.97012444,0.488888889 -9.77777778e-05,2.45862222 -9.77777778e-05,4.88888889 C-9.77777778e-05,7.31915556 1.97012444,9.28888889 4.39990222,9.28888889" id="Fill-1"></path>
                <path d="M41.6575867,20.0038667 L8.33736444,20.0038667 C7.61674222,18.5562667 6.12660889,17.5589333 4.39985333,17.5589333 C1.97007556,17.5589333 -0.000146666667,19.5291556 -0.000146666667,21.9589333 C-0.000146666667,24.3892 1.97007556,26.3589333 4.39985333,26.3589333 C6.12660889,26.3589333 7.61674222,25.3620889 8.33736444,23.9149778 L41.6575867,23.9149778 C42.7375422,23.9149778 43.6131422,23.0393778 43.6131422,21.9594222 C43.6131422,20.8794667 42.7375422,20.0038667 41.6575867,20.0038667" id="Fill-6"></path>
                <path d="M41.6575867,37.0739111 L8.33736444,37.0739111 C7.61674222,35.6268 6.12660889,34.6299556 4.39985333,34.6299556 C1.97007556,34.6299556 -0.000146666667,36.5996889 -0.000146666667,39.0299556 C-0.000146666667,41.4597333 1.97007556,43.4299556 4.39985333,43.4299556 C6.12660889,43.4299556 7.61674222,42.4326222 8.33736444,40.9850222 L41.6575867,40.9850222 C42.7375422,40.9850222 43.6131422,40.1094222 43.6131422,39.0294667 C43.6131422,37.9495111 42.7375422,37.0739111 41.6575867,37.0739111" id="Fill-11"></path>
            </g>
        </g>
    </g>
</svg>