<?xml version="1.0" encoding="UTF-8"?>
<svg width="150px" height="120px" viewBox="0 0 150 120" version="1.1" xmlns="http://www.w3.org/2000/svg" xmlns:xlink="http://www.w3.org/1999/xlink">
    <!-- Generator: Sketch 49 (51002) - http://www.bohemiancoding.com/sketch -->
    <title>Page 1</title>
    <desc>Created with Sketch.</desc>
    <defs>
        <path d="M0.462466667,58.3059693 C2.82604411,60.01946 5.57309215,61.451865 8.70466667,62.606 C12.5786667,64.0326667 17.026,64.7453333 22.0426667,64.7453333 C26.934,64.7453333 31.2993333,64.1273333 35.1426667,62.8913333 C38.986,61.6533333 42.3033333,59.988 45.0973333,57.8953333 C47.8926667,55.8026667 50.132,53.346 51.8146667,50.522 C53.498,47.6993333 54.6253333,44.7026667 55.1973333,41.5313333 C55.832,37.662 55.912,34.1573333 55.436,31.0173333 C54.9586667,27.878 54.118,25.1026667 52.9106667,22.692 C51.704,20.2833333 50.2906667,18.174 48.67,16.366 C47.0513333,14.5586667 45.4793333,12.988 43.9546667,11.6566667 C42.1133333,10.1346667 40.4933333,8.692 39.0953333,7.328 C37.698,5.96333333 36.5233333,4.74333333 35.572,3.664 C34.428,2.46 33.4753333,1.34866667 32.712,0.335333333 L11.2773333,0.335333333 C10.452,1.41333333 9.498,2.55466667 8.41933333,3.76 C7.52933333,4.83866667 6.41933333,6.028 5.08466667,7.328 C3.75066667,8.62866667 2.258,10.0066667 0.606666667,11.466 C0.558509213,11.5077016 0.510442536,11.5495447 0.462466647,11.5915294 L0.462466667,58.3059693 Z" id="path-1"></path>
        <path d="M0.254204616,0.365221564 C0.867561598,0.154626797 1.52667832,0.104590234 2.232,0.214666667 C3.248,0.373333333 4.01,0.706 4.51866667,1.21266667 C4.77266667,1.53066667 5.04266667,1.8 5.328,2.022 C5.61333333,2.244 5.91533333,2.45 6.23333333,2.64133333 C6.55,2.89333333 6.89933333,3.116 7.28133333,3.306 C7.32242836,3.306 7.36689163,3.29933368 7.41474591,3.28600104 L7.41474591,6.16822188 L0.254204616,6.16822188 L0.254204616,0.365221564 Z" id="path-3"></path>
        <path d="M0.191014379,0.625633248 C0.714829915,0.809323293 1.14337003,1.0526325 1.474,1.356 C1.85533333,1.706 2.21933333,2.038 2.56933333,2.35533333 C2.92,2.672 3.3,2.942 3.71266667,3.16333333 C4.12533333,3.386 4.65,3.49733333 5.28466667,3.49733333 C5.92066667,3.49733333 6.45933333,3.402 6.90533333,3.212 C7.34933333,3.02066667 7.77733333,2.84666667 8.19,2.688 C8.60333333,2.52933333 9.01666667,2.41866667 9.42933333,2.35533333 C9.49710996,2.34471244 9.56704459,2.33758031 9.63913427,2.33391922 L9.63913427,6.80593765 L0.191014379,6.80593765 L0.191014379,0.625633248 Z" id="path-5"></path>
        <path d="M0.308665734,1.18089095 C0.580495371,1.1039095 0.870799723,1.0824312 1.18,1.11666667 C1.752,1.18066667 2.35533333,1.308 2.99,1.49733333 C3.62533333,1.68733333 4.24466667,1.87866667 4.848,2.06866667 C5.45133333,2.258 6.00733333,2.29066667 6.51533333,2.164 C7.40466667,1.97266667 8.07133333,1.64066667 8.51533333,1.16466667 C8.69410789,0.973294799 8.9242832,0.7641428 9.2057726,0.537080699 L9.2057726,5.03288812 L0.308665734,5.03288812 L0.308665734,1.18089095 Z" id="path-7"></path>
        <path d="M16.5787459,0.423813654 C16.803551,0.629177783 17.022383,0.828320615 17.236,1.022 C17.5866667,1.33866667 17.9666667,1.60866667 18.3793333,1.83 C18.792,2.05266667 19.3166667,2.164 19.9513333,2.164 C20.5873333,2.164 21.126,2.06866667 21.572,1.87866667 C22.016,1.68733333 22.444,1.51333333 22.8566667,1.35466667 C23.27,1.196 23.6833333,1.08533333 24.096,1.022 C24.5086667,0.957333333 25.0013333,1.022 25.5733333,1.212 C26.208,1.466 26.636,1.83 26.858,2.306 C27.0813333,2.782 27.146,3.27266667 27.0493333,3.78066667 C26.9546667,4.28866667 26.732,4.79533333 26.3826667,5.30333333 C26.032,5.81 25.604,6.222 25.096,6.54 C23.8913333,7.30133333 22.9693333,8.078 22.334,8.87066667 C21.6986667,9.664 21.0633333,10.5046667 20.4286667,11.3926667 C20.1106667,11.836 19.7613333,12.344 19.3793333,12.9146667 C18.9993333,13.4853333 18.65,14.056 18.3326667,14.6273333 C17.9506667,15.3246667 17.538,15.9906667 17.094,16.6246667 L7.46066667,19.128 L0.445405458,17.3870506 L0.445405458,0.423813594 L5.01875558,0.423813654 C5.11973143,0.518573755 5.22282403,0.606835834 5.328,0.688666667 C5.61333333,0.910666667 5.91533333,1.11666667 6.23333333,1.308 C6.55,1.56 6.89933333,1.78266667 7.28133333,1.97266667 C7.408,1.97266667 7.56666667,1.90933333 7.758,1.78266667 C8.13866667,1.52933333 8.64666667,1.08533333 9.28266667,0.450666667 C9.2924913,0.441684388 9.30231583,0.432733361 9.31214025,0.423813594 L16.578746,0.423813654 Z" id="path-9"></path>
    </defs>
    <g id="Page-1" stroke="none" stroke-width="1" fill="none" fill-rule="evenodd">
        <g id="web" transform="translate(-130.000000, -4324.000000)">
            <g id="Page-1" transform="translate(131.000000, 4324.000000)">
                <g id="Group-7" transform="translate(37.333333, 22.236000)">
                    <path d="M73.5899333,54.006 C73.5899333,65.0513333 57.1739333,74.006 36.9232667,74.006 C16.6732667,74.006 0.2566,65.0513333 0.2566,54.006 C0.2566,42.96 16.6732667,34.006 36.9232667,34.006 C57.1739333,34.006 73.5899333,42.96 73.5899333,54.006 Z" id="Stroke-1" stroke="#2CD098"></path>
                    <path d="M36.7094,65.7456 C31.6740667,65.7456 27.1480667,65.0182667 23.2560667,63.5849333 C19.3600667,62.1489333 16.0087333,60.2569333 13.2954,57.9596 C10.5787333,55.6622667 8.39006667,53.0556 6.79006667,50.2102667 C5.19073333,47.3689333 4.12073333,44.5009333 3.6094,41.6869333 C3.0334,38.5582667 2.95206667,35.5122667 3.36873333,32.6362667 C3.7834,29.7662667 4.54473333,27.0329333 5.6314,24.5109333 C6.71606667,21.9936 8.09273333,19.6482667 9.72273333,17.5416 C11.3480667,15.4422667 13.1414,13.5369333 15.0554,11.8809333 C16.7080667,10.4202667 18.2100667,9.0316 19.5187333,7.7556 C20.8360667,6.4716 21.9500667,5.28026667 22.8294,4.21426667 C23.9127333,3.00426667 24.8687333,1.85826667 25.6794,0.7996 L25.7787333,0.668933333 L47.5454,0.668933333 L47.6454,0.8016 C48.4027333,1.80826667 49.3567333,2.91826667 50.4800667,4.10093333 C51.4280667,5.17626667 52.6080667,6.4016 53.9954,7.75626667 C55.3807333,9.1076 57.0087333,10.5582667 58.8340667,12.0662667 C60.3667333,13.4049333 61.9627333,14.9996 63.5847333,16.8102667 C65.2160667,18.6296 66.6600667,20.7829333 67.8760667,23.2096 C69.0914,25.6389333 69.9520667,28.4736 70.4320667,31.6336 C70.9107333,34.7942667 70.8300667,38.3669333 70.1927333,42.2522667 C69.6154,45.4542667 68.4634,48.5162667 66.7674,51.3589333 C65.0727333,54.2042667 62.7834,56.7176 59.9640667,58.8289333 C57.1514,60.9349333 53.7687333,62.6329333 49.9120667,63.8749333 C46.0534,65.1169333 41.6120667,65.7456 36.7094,65.7456" id="Fill-3" fill="#0F4634"></path>
                    <path d="M47.7116667,0.3348 L47.379,0.3348 L25.9436667,0.3348 L25.6143333,0.3348 L25.4143333,0.5968 C24.609,1.6488 23.6583333,2.78813333 22.5896667,3.98213333 C21.701,5.05813333 20.5956667,6.24013333 19.2863333,7.5168 C17.9763333,8.79413333 16.4776667,10.1794667 14.8316667,11.6334667 C12.9076667,13.2988 11.0983333,15.2201333 9.459,17.3381333 C7.81233333,19.4668 6.421,21.8361333 5.325,24.3794667 C4.227,26.9281333 3.45766667,29.6894667 3.03833333,32.5888 C2.617,35.5001333 2.699,38.5821333 3.281,41.7474667 C3.799,44.5961333 4.88166667,47.4988 6.49966667,50.3748 C8.11966667,53.2541333 10.3336667,55.8914667 13.081,58.2141333 C15.8236667,60.5368 19.2083333,62.4488 23.141,63.8981333 C27.0703333,65.3454667 31.635,66.0788 36.7096667,66.0788 C41.647,66.0788 46.123,65.4441333 50.0136667,64.1928 C53.9056667,62.9394667 57.3203333,61.2248 60.1636667,59.0961333 C63.0176667,56.9594667 65.3363333,54.4134667 67.0536667,51.5301333 C68.7703333,48.6528 69.9363333,45.5528 70.5196667,42.3161333 C71.165,38.3868 71.2456667,34.7794667 70.7616667,31.5841333 C70.2756667,28.3888 69.4056667,25.5208 68.1736667,23.0608 C66.9443333,20.6068 65.4843333,18.4294667 63.833,16.5881333 C62.203,14.7674667 60.597,13.1634667 59.0596667,11.8214667 C57.2283333,10.3068 55.607,8.8628 54.2276667,7.5168 C52.849,6.17146667 51.675,4.95146667 50.739,3.89013333 C49.6063333,2.6968 48.661,1.5968 47.9116667,0.6008 L47.7116667,0.3348 Z M47.379,1.00146667 C48.1423333,2.01546667 49.095,3.12613333 50.239,4.3308 C51.1903333,5.40946667 52.3643333,6.63013333 53.7623333,7.99413333 C55.1603333,9.35813333 56.7803333,10.8014667 58.6216667,12.3234667 C60.1463333,13.6548 61.7183333,15.2254667 63.3363333,17.0328 C64.9576667,18.8408 66.371,20.9501333 67.5776667,23.3588 C68.7843333,25.7694667 69.6256667,28.5441333 70.1023333,31.6834667 C70.5783333,34.8241333 70.499,38.3288 69.8643333,42.1981333 C69.2923333,45.3688 68.165,48.3661333 66.481,51.1888 C64.799,54.0128 62.5596667,56.4688 59.7643333,58.5621333 C56.9696667,60.6541333 53.6523333,62.3208 49.8096667,63.5581333 C45.9656667,64.7941333 41.6003333,65.4121333 36.7096667,65.4121333 C31.6923333,65.4121333 27.2456667,64.6994667 23.3716667,63.2721333 C19.497,61.8448 16.2103333,59.9901333 13.511,57.7054667 C10.8116667,55.4228 8.66833333,52.8701333 7.081,50.0468 C5.49233333,47.2248 4.44433333,44.4181333 3.937,41.6268 C3.365,38.5188 3.285,35.5388 3.69833333,32.6834667 C4.111,29.8294667 4.85766667,27.1494667 5.937,24.6434667 C7.017,22.1381333 8.367,19.8394667 9.98633333,17.7461333 C11.6056667,15.6534667 13.3683333,13.7821333 15.273,12.1328 C16.925,10.6734667 18.4176667,9.2948 19.7516667,7.99413333 C21.085,6.69413333 22.1963333,5.50546667 23.0863333,4.4268 C24.165,3.22146667 25.119,2.07946667 25.9436667,1.00146667 L47.379,1.00146667 Z" id="Fill-5" fill="#2CD098"></path>
                </g>
                <g id="Group-10" transform="translate(52.000000, 22.902667)">
                    <mask id="mask-2" fill="white">
                        <use xlink:href="#path-1"></use>
                    </mask>
                    <g id="Clip-9"></g>
                    <path d="M28.3884667,-0.755066667 C32.7218,18.5042667 51.4998,25.2449333 41.3884667,46.9116 C35.2631333,60.0369333 14.4251333,61.8376 0.462466667,58.4676 C17.3144667,77.7269333 62.9618,59.2629333 61.8258,44.7889333 C57.7584667,-7.0144 28.3884667,-0.755066667 28.3884667,-0.755066667" id="Fill-8" fill="#0A3226" mask="url(#mask-2)"></path>
                </g>
                <g id="Group-15" transform="translate(53.333333, 0.236000)">
                    <path d="M10.4896667,18.9142 L10.419,18.7928667 C9.96966667,18.0248667 9.523,17.2922 9.09166667,16.6162 C8.711,15.9842 8.29833333,15.3502 7.861,14.7248667 C7.417,14.0928667 7.029,13.5115333 6.70833333,12.9982 C6.09433333,12.0802 5.39033333,11.2522 4.621,10.5455333 C3.841,9.82886667 3.065,9.17953333 2.31233333,8.61686667 C1.44033333,8.0142 0.820333333,7.1722 0.481,6.12153333 C0.122333333,5.0122 0.457666667,4.0142 1.44966667,3.23553333 C1.889,2.9222 2.373,2.76753333 2.90033333,2.76753333 C3.00366667,2.76753333 3.10966667,2.77353333 3.21633333,2.78553333 C3.80633333,2.85086667 4.43433333,2.98353333 5.08566667,3.1782 C5.72233333,3.3682 6.34366667,3.55953333 6.94833333,3.75086667 C7.277,3.8542 7.59166667,3.9062 7.88366667,3.9062 C8.07366667,3.9062 8.259,3.8842 8.43433333,3.8402 C9.263,3.6622 9.87766667,3.35886667 10.2723333,2.93686667 C10.739,2.43753333 11.507,1.84486667 12.6216667,1.1242 C13.3063333,0.702866667 14.0556667,0.491533333 14.8543333,0.491533333 C15.1023333,0.491533333 15.3583333,0.511533333 15.617,0.5522 C16.6983333,0.7202 17.529,1.08753333 18.087,1.64286667 C18.3483333,1.96686667 18.6016667,2.2202 18.8656667,2.42486667 C19.1396667,2.63753333 19.433,2.8382 19.7383333,3.02153333 C20.0456667,3.26353333 20.3503333,3.46086667 20.6716667,3.6282 C20.7183333,3.61353333 20.7943333,3.5802 20.907,3.50486667 C21.267,3.26486667 21.763,2.83086667 22.3803333,2.21486667 C23.1796667,1.48353333 23.981,0.9502 24.773,0.620866667 C25.1056667,0.482866667 25.483,0.4122 25.8936667,0.4122 C26.523,0.4122 27.2563333,0.5782 28.0736667,0.9042 C28.7283333,1.09953333 29.285,1.3962 29.699,1.77686667 C30.0803333,2.1262 30.4443333,2.4582 30.7936667,2.77486667 C31.1236667,3.07353333 31.4863333,3.3302 31.8703333,3.53753333 C32.233,3.73153333 32.709,3.83086667 33.2843333,3.83086667 C33.8703333,3.83086667 34.3723333,3.74353333 34.775,3.57153333 C35.2216667,3.37953333 35.6536667,3.2042 36.071,3.04353333 C36.5043333,2.87686667 36.9443333,2.75886667 37.3783333,2.6922 C37.4976667,2.6742 37.6236667,2.6642 37.755,2.6642 C38.127,2.6642 38.5496667,2.7422 39.0116667,2.89553333 C39.743,3.18753333 40.2356667,3.6122 40.4936667,4.16486667 C40.7463333,4.70353333 40.819,5.2682 40.7103333,5.84286667 C40.607,6.3942 40.365,6.94953333 39.9903333,7.4922 C39.6156667,8.03486667 39.1496667,8.48286667 38.6063333,8.8222 C37.4363333,9.56153333 36.5343333,10.3208667 35.9276667,11.0795333 C35.2996667,11.8628667 34.6623333,12.7062 34.033,13.5862 C33.7163333,14.0275333 33.3696667,14.5328667 32.9896667,15.1002 C32.6096667,15.6715333 32.2623333,16.2402 31.9583333,16.7888667 C31.5743333,17.4888667 31.151,18.1715333 30.7003333,18.8162 L30.6303333,18.9168667 L20.7963333,21.4715333 L10.4896667,18.9142 Z" id="Fill-11" fill="#0F4634"></path>
                    <path d="M25.894,0.0789333333 C25.4386667,0.0789333333 25.0186667,0.1576 24.6446667,0.3136 C23.8173333,0.6576 22.9833333,1.21093333 22.166,1.95893333 C21.5426667,2.57893333 21.0633333,2.9996 20.7213333,3.22893333 C20.7066667,3.23826667 20.6933333,3.24626667 20.6806667,3.25426667 C20.432,3.1156 20.198,2.95826667 19.982,2.78626667 L19.948,2.75893333 L19.9093333,2.7356 C19.6153333,2.5596 19.3333333,2.36626667 19.0713333,2.16226667 C18.8266667,1.97293333 18.592,1.73826667 18.3726667,1.4636 L18.3493333,1.4336 L18.3226667,1.40693333 C17.7133333,0.800933333 16.8206667,0.402266667 15.668,0.222266667 C15.3933333,0.1796 15.1193333,0.158266667 14.8546667,0.158266667 C13.9926667,0.158266667 13.1846667,0.386266667 12.4533333,0.836933333 C11.3033333,1.5796 10.514,2.1896 10.0286667,2.70893333 C9.68133333,3.08093333 9.12533333,3.35093333 8.37533333,3.5116 C8.20466667,3.55426667 8.04666667,3.57293333 7.884,3.57293333 C7.626,3.57293333 7.34466667,3.5256 7.048,3.43226667 C6.442,3.2416 5.81933333,3.0496 5.18066667,2.85893333 C4.51133333,2.65826667 3.86266667,2.52226667 3.254,2.45426667 C3.13333333,2.44093333 3.01533333,2.43426667 2.9,2.43426667 C2.302,2.43426667 1.75333333,2.6096 1.26866667,2.95493333 C0.132,3.8456 -0.241333333,4.9696 0.163333333,6.2236 C0.526,7.3456 1.18866667,8.2456 2.13333333,8.89826667 C2.856,9.4396 3.624,10.0816 4.39533333,10.7909333 C5.14533333,11.4796 5.832,12.2876 6.436,13.1922667 C6.74866667,13.6916 7.14,14.2776 7.588,14.9169333 C8.02066667,15.5342667 8.42933333,16.1616 8.80133333,16.7809333 C9.24,17.4682667 9.684,18.1976 10.1306667,18.9609333 L10.2726667,19.2036 L10.546,19.2716 L20.634,21.7749333 L20.798,21.8156 L20.962,21.7729333 L30.5953333,19.2702667 L30.8333333,19.2082667 L30.974,19.0069333 C31.4313333,18.3529333 31.8613333,17.6596 32.2513333,16.9476 C32.55,16.4082667 32.8933333,15.8476 33.268,15.2842667 C33.6633333,14.6936 34.0026667,14.2016 34.304,13.7809333 C34.9333333,12.9002667 35.5666667,12.0622667 36.1873333,11.2882667 C36.772,10.5589333 37.6453333,9.8236 38.7853333,9.1036 C39.3653333,8.7416 39.864,8.26226667 40.2646667,7.6816 C40.666,7.10026667 40.926,6.50226667 41.038,5.9036 C41.16,5.26026667 41.0786667,4.62693333 40.7953333,4.02293333 C40.5006667,3.39226667 39.9486667,2.91093333 39.1546667,2.59293333 L39.136,2.5856 L39.1166667,2.57893333 C38.6206667,2.41426667 38.1626667,2.33093333 37.7553333,2.33093333 C37.6073333,2.33093333 37.4633333,2.34226667 37.326,2.3636 C36.872,2.43293333 36.4086667,2.55693333 35.952,2.73226667 C35.514,2.90093333 35.074,3.08026667 34.6426667,3.2656 C34.2826667,3.41893333 33.8253333,3.49693333 33.2846667,3.49693333 C32.7646667,3.49693333 32.3413333,3.4116 32.028,3.24293333 C31.6673333,3.04893333 31.3266667,2.80826667 31.0173333,2.5276 C30.6686667,2.2116 30.3053333,1.8796 29.9233333,1.53093333 C29.4786667,1.1216 28.8886667,0.802933333 28.17,0.584266667 C27.324,0.248933333 26.5586667,0.0789333333 25.894,0.0789333333 M25.894,0.7456 C26.4833333,0.7456 27.1686667,0.9016 27.95,1.21426667 C28.5846667,1.40426667 29.094,1.6736 29.474,2.02293333 C29.8553333,2.37226667 30.22,2.70426667 30.57,3.02226667 C30.92,3.33893333 31.3,3.60826667 31.7126667,3.83026667 C32.1253333,4.05226667 32.65,4.1636 33.2846667,4.1636 C33.9206667,4.1636 34.4593333,4.06826667 34.906,3.87826667 C35.3493333,3.6876 35.7773333,3.5136 36.1906667,3.35493333 C36.6033333,3.19626667 37.0166667,3.08493333 37.4293333,3.02226667 C37.5326667,3.00626667 37.6413333,2.9976 37.7553333,2.9976 C38.0946667,2.9976 38.478,3.0696 38.9066667,3.2116 C39.5413333,3.46626667 39.9693333,3.83026667 40.1913333,4.30626667 C40.4146667,4.78226667 40.4786667,5.27293333 40.3826667,5.78093333 C40.2873333,6.28826667 40.066,6.7956 39.716,7.30293333 C39.366,7.81026667 38.9373333,8.22226667 38.4293333,8.5396 C37.2246667,9.30093333 36.302,10.0782667 35.6673333,10.8709333 C35.032,11.6636 34.3966667,12.5042667 33.762,13.3922667 C33.444,13.8362667 33.0946667,14.3436 32.7126667,14.9142667 C32.3333333,15.4849333 31.9833333,16.0556 31.6666667,16.6269333 C31.284,17.3249333 30.8713333,17.9902667 30.4273333,18.6249333 L20.7946667,21.1276 L10.7066667,18.6249333 C10.2613333,17.8642667 9.81733333,17.1342667 9.37266667,16.4369333 C8.99133333,15.8022667 8.578,15.1682667 8.134,14.5336 C7.68866667,13.8996 7.308,13.3289333 6.99066667,12.8216 C6.35533333,11.8702667 5.64133333,11.0296 4.84666667,10.3002667 C4.05333333,9.57026667 3.27533333,8.92093333 2.51266667,8.3496 C1.68666667,7.77893333 1.116,7.0016 0.798,6.01893333 C0.48,5.0356 0.767333333,4.1956 1.656,3.4976 C2.02666667,3.23293333 2.44133333,3.10093333 2.9,3.10093333 C2.99133333,3.10093333 3.08466667,3.10626667 3.18,3.11693333 C3.752,3.18026667 4.35533333,3.3076 4.99,3.4976 C5.62533333,3.6876 6.24466667,3.87826667 6.848,4.06826667 C7.21066667,4.18226667 7.556,4.2396 7.884,4.2396 C8.102,4.2396 8.312,4.21426667 8.51533333,4.1636 C9.40466667,3.97293333 10.0713333,3.64026667 10.516,3.16426667 C10.9606667,2.68826667 11.7226667,2.10226667 12.8026667,1.40426667 C13.4313333,1.0176 14.1153333,0.824933333 14.8546667,0.824933333 C15.086,0.824933333 15.3233333,0.8436 15.5653333,0.8816 C16.5813333,1.0396 17.3433333,1.37293333 17.852,1.8796 C18.106,2.1976 18.3753333,2.46693333 18.6613333,2.68826667 C18.9473333,2.91026667 19.2486667,3.11693333 19.5666667,3.3076 C19.8833333,3.56093333 20.2326667,3.78293333 20.6146667,3.97293333 C20.7413333,3.97293333 20.9,3.9096 21.0913333,3.78293333 C21.472,3.52893333 21.98,3.08493333 22.616,2.45093333 C23.378,1.7536 24.1393333,1.2456 24.9013333,0.928933333 C25.1946667,0.806933333 25.5253333,0.7456 25.894,0.7456" id="Fill-13" fill="#2CD098"></path>
                </g>
                <g id="Group-28" transform="translate(55.333333, 0.902667)">
                    <g id="Group-18" transform="translate(11.333333, 0.000000)">
                        <mask id="mask-4" fill="white">
                            <use xlink:href="#path-3"></use>
                        </mask>
                        <g id="Clip-17"></g>
                        <path d="M0.359133333,-0.269066667 C2.74246667,2.22293333 3.9338,6.66426667 5.88446667,6.12293333 C6.7758,5.87493333 6.99913333,5.06626667 7.40113333,1.7896 C7.8018,-1.48773333 -0.7842,-1.46373333 0.359133333,-0.269066667" id="Fill-16" fill="#0A3226" mask="url(#mask-4)"></path>
                    </g>
                    <g id="Group-21" transform="translate(26.000000, 0.000000)">
                        <mask id="mask-6" fill="white">
                            <use xlink:href="#path-5"></use>
                        </mask>
                        <g id="Clip-20"></g>
                        <path d="M9.6342,0.922666667 C9.41753333,3.306 2.80886667,7.206 0.967533333,6.77266667 C-0.874466667,6.33933333 1.00286667,2.98133333 2.05086667,0.598 C2.8642,-1.252 9.85086667,-1.46066667 9.6342,0.922666667" id="Fill-19" fill="#0A3226" mask="url(#mask-6)"></path>
                    </g>
                    <g id="Group-24" transform="translate(0.000000, 1.333333)">
                        <mask id="mask-8" fill="white">
                            <use xlink:href="#path-7"></use>
                        </mask>
                        <g id="Clip-23"></g>
                        <path d="M0.3136,-1.81886667 C0.530266667,0.564466667 6.38026667,5.43913333 8.22226667,5.0058 C10.0636,4.57246667 8.94493333,0.239133333 7.89693333,-2.1442 C7.0836,-3.99353333 0.0969333333,-4.2022 0.3136,-1.81886667" id="Fill-22" fill="#0A3226" mask="url(#mask-8)"></path>
                    </g>
                    <g id="Group-27" transform="translate(11.333333, 1.333333)">
                        <mask id="mask-10" fill="white">
                            <use xlink:href="#path-9"></use>
                        </mask>
                        <g id="Clip-26"></g>
                        <path d="M29.0085333,0.441866667 C20.8232,2.36786667 18.9272,11.0345333 12.6685333,13.4418667 C6.4092,15.8492 3.8812,14.6458667 0.751866667,16.6918667 C-2.37813333,18.7385333 19.4992,22.5598667 19.4992,22.5598667 C19.4992,22.5598667 32.1958667,-0.308133333 29.0085333,0.441866667" id="Fill-25" fill="#0A3226" mask="url(#mask-10)"></path>
                    </g>
                </g>
                <g id="Group-125" transform="translate(0.000000, 17.569333)">
                    <path d="M85.9613333,6.74426667 C85.9613333,6.74426667 83.0113333,8.3536 74.0273333,8.3536 C65.0426667,8.3536 61.8246667,6.74426667 61.8246667,6.74426667 L62.6293333,0.308266667 C62.6293333,0.308266667 66.0486667,1.91693333 74.0273333,1.91693333 C82.0053333,1.91693333 85.1566667,0.308266667 85.1566667,0.308266667 L85.9613333,6.74426667 Z" id="Fill-29" fill="#135942"></path>
                    <path d="M85.9613333,6.74426667 C85.9613333,6.74426667 83.0113333,8.3536 74.0273333,8.3536 C65.0426667,8.3536 61.8246667,6.74426667 61.8246667,6.74426667 L62.6293333,0.308266667 C62.6293333,0.308266667 66.0486667,1.91693333 74.0273333,1.91693333 C82.0053333,1.91693333 85.1566667,0.308266667 85.1566667,0.308266667 L85.9613333,6.74426667 Z" id="Stroke-31" stroke="#2CD098" stroke-linecap="round" stroke-linejoin="round"></path>
                    <path d="M69.5277333,78.728 L63.1944,86.3946667" id="Stroke-33" stroke="#2CD098"></path>
                    <path d="M0.3334,58.2938 C0.3334,62.7118 7.19806667,66.2938 15.6667333,66.2938 C24.1354,66.2938 31.0000667,62.7118 31.0000667,58.2938 C31.0000667,53.8751333 24.1354,50.2938 15.6667333,50.2938 C7.19806667,50.2938 0.3334,53.8751333 0.3334,58.2938 Z" id="Stroke-35" stroke="#2CD098"></path>
                    <path d="M31.1944,58.3946667 L37.8610667,58.3946667" id="Stroke-37" stroke="#2CD098"></path>
                    <path d="M110.861067,61.0613333 L117.027733,60.3946667" id="Stroke-39" stroke="#2CD098"></path>
                    <path d="M6.3334,51.0691333 L6.3334,56.4544667 L6.34673333,56.4544667 C6.4854,58.8011333 10.5994,60.6838 15.6667333,60.6838 C20.7340667,60.6838 24.8480667,58.8011333 24.9867333,56.4544667 L25.0000667,56.4544667 L25.0000667,51.0691333 L6.3334,51.0691333 Z" id="Fill-41" fill="#0A3226"></path>
                    <path d="M6.3334,51.0691333 L6.3334,56.4544667 L6.34673333,56.4544667 C6.4854,58.8011333 10.5994,60.6838 15.6667333,60.6838 C20.7340667,60.6838 24.8480667,58.8011333 24.9867333,56.4544667 L25.0000667,56.4544667 L25.0000667,51.0691333 L6.3334,51.0691333 Z" id="Stroke-43" stroke="#2CD098"></path>
                    <path d="M25.0000667,51.0698 C25.0000667,53.4724667 20.8214,55.4191333 15.6667333,55.4191333 C10.5120667,55.4191333 6.3334,53.4724667 6.3334,51.0698 C6.3334,48.6678 10.5120667,46.7204667 15.6667333,46.7204667 C20.8214,46.7204667 25.0000667,48.6678 25.0000667,51.0698" id="Fill-45" fill="#0F4634"></path>
                    <path d="M25.0000667,51.0698 C25.0000667,53.4724667 20.8214,55.4191333 15.6667333,55.4191333 C10.5120667,55.4191333 6.3334,53.4724667 6.3334,51.0698 C6.3334,48.6678 10.5120667,46.7204667 15.6667333,46.7204667 C20.8214,46.7204667 25.0000667,48.6678 25.0000667,51.0698 Z" id="Stroke-47" stroke="#2CD098"></path>
                    <path d="M6.3334,45.7684 L6.3334,51.1537333 L6.34673333,51.1537333 C6.4854,53.4997333 10.5994,55.3824 15.6667333,55.3824 C20.7340667,55.3824 24.8480667,53.4997333 24.9867333,51.1537333 L25.0000667,51.1537333 L25.0000667,45.7684 L6.3334,45.7684 Z" id="Fill-49" fill="#0A3226"></path>
                    <path d="M6.3334,45.7684 L6.3334,51.1537333 L6.34673333,51.1537333 C6.4854,53.4997333 10.5994,55.3824 15.6667333,55.3824 C20.7340667,55.3824 24.8480667,53.4997333 24.9867333,51.1537333 L25.0000667,51.1537333 L25.0000667,45.7684 L6.3334,45.7684 Z" id="Stroke-51" stroke="#2CD098"></path>
                    <path d="M25.0000667,45.769 C25.0000667,48.1716667 20.8214,50.1183333 15.6667333,50.1183333 C10.5120667,50.1183333 6.3334,48.1716667 6.3334,45.769 C6.3334,43.3663333 10.5120667,41.4196667 15.6667333,41.4196667 C20.8214,41.4196667 25.0000667,43.3663333 25.0000667,45.769" id="Fill-53" fill="#0F4634"></path>
                    <path d="M25.0000667,45.769 C25.0000667,48.1716667 20.8214,50.1183333 15.6667333,50.1183333 C10.5120667,50.1183333 6.3334,48.1716667 6.3334,45.769 C6.3334,43.3663333 10.5120667,41.4196667 15.6667333,41.4196667 C20.8214,41.4196667 25.0000667,43.3663333 25.0000667,45.769 Z" id="Stroke-55" stroke="#2CD098"></path>
                    <path d="M6.3334,40.4669333 L6.3334,45.8522667 L6.34673333,45.8522667 C6.4854,48.1989333 10.5994,50.0816 15.6667333,50.0816 C20.7340667,50.0816 24.8480667,48.1989333 24.9867333,45.8522667 L25.0000667,45.8522667 L25.0000667,40.4669333 L6.3334,40.4669333 Z" id="Fill-57" fill="#0A3226"></path>
                    <path d="M6.3334,40.4669333 L6.3334,45.8522667 L6.34673333,45.8522667 C6.4854,48.1989333 10.5994,50.0816 15.6667333,50.0816 C20.7340667,50.0816 24.8480667,48.1989333 24.9867333,45.8522667 L25.0000667,45.8522667 L25.0000667,40.4669333 L6.3334,40.4669333 Z" id="Stroke-59" stroke="#2CD098"></path>
                    <path d="M25.0000667,40.4676 C25.0000667,42.8702667 20.8214,44.8169333 15.6667333,44.8169333 C10.5120667,44.8169333 6.3334,42.8702667 6.3334,40.4676 C6.3334,38.0649333 10.5120667,36.1182667 15.6667333,36.1182667 C20.8214,36.1182667 25.0000667,38.0649333 25.0000667,40.4676" id="Fill-61" fill="#0F4634"></path>
                    <path d="M25.0000667,40.4676 C25.0000667,42.8702667 20.8214,44.8169333 15.6667333,44.8169333 C10.5120667,44.8169333 6.3334,42.8702667 6.3334,40.4676 C6.3334,38.0649333 10.5120667,36.1182667 15.6667333,36.1182667 C20.8214,36.1182667 25.0000667,38.0649333 25.0000667,40.4676 Z" id="Stroke-63" stroke="#2CD098"></path>
                    <path d="M117.277733,59.6271333 C117.277733,64.0451333 124.1424,67.6271333 132.611067,67.6271333 C141.079733,67.6271333 147.9444,64.0451333 147.9444,59.6271333 C147.9444,55.2084667 141.079733,51.6271333 132.611067,51.6271333 C124.1424,51.6271333 117.277733,55.2084667 117.277733,59.6271333 Z" id="Stroke-65" stroke="#2CD098"></path>
                    <path d="M123.277733,52.2136667 L123.277733,57.599 L123.291067,57.599 C123.429733,59.945 127.543733,61.8276667 132.611067,61.8276667 C137.6784,61.8276667 141.7924,59.945 141.931067,57.599 L141.9444,57.599 L141.9444,52.2136667 L123.277733,52.2136667 Z" id="Fill-67" fill="#0A3226"></path>
                    <path d="M123.277733,52.2136667 L123.277733,57.599 L123.291067,57.599 C123.429733,59.945 127.543733,61.8276667 132.611067,61.8276667 C137.6784,61.8276667 141.7924,59.945 141.931067,57.599 L141.9444,57.599 L141.9444,52.2136667 L123.277733,52.2136667 Z" id="Stroke-69" stroke="#2CD098"></path>
                    <path d="M141.9444,52.2143333 C141.9444,54.6163333 137.765733,56.5636667 132.611067,56.5636667 C127.4564,56.5636667 123.277733,54.6163333 123.277733,52.2143333 C123.277733,49.8116667 127.4564,47.865 132.611067,47.865 C137.765733,47.865 141.9444,49.8116667 141.9444,52.2143333" id="Fill-71" fill="#0F4634"></path>
                    <path d="M141.9444,52.2143333 C141.9444,54.6163333 137.765733,56.5636667 132.611067,56.5636667 C127.4564,56.5636667 123.277733,54.6163333 123.277733,52.2143333 C123.277733,49.8116667 127.4564,47.865 132.611067,47.865 C137.765733,47.865 141.9444,49.8116667 141.9444,52.2143333 Z" id="Stroke-73" stroke="#2CD098"></path>
                    <path d="M123.277733,46.9122667 L123.277733,52.2976 L123.291067,52.2976 C123.429733,54.6436 127.543733,56.5269333 132.611067,56.5269333 C137.6784,56.5269333 141.7924,54.6436 141.931067,52.2976 L141.9444,52.2976 L141.9444,46.9122667 L123.277733,46.9122667 Z" id="Fill-75" fill="#0A3226"></path>
                    <path d="M123.277733,46.9122667 L123.277733,52.2976 L123.291067,52.2976 C123.429733,54.6436 127.543733,56.5269333 132.611067,56.5269333 C137.6784,56.5269333 141.7924,54.6436 141.931067,52.2976 L141.9444,52.2976 L141.9444,46.9122667 L123.277733,46.9122667 Z" id="Stroke-77" stroke="#2CD098"></path>
                    <path d="M141.9444,46.9129333 C141.9444,49.3156 137.765733,51.2622667 132.611067,51.2622667 C127.4564,51.2622667 123.277733,49.3156 123.277733,46.9129333 C123.277733,44.5102667 127.4564,42.5636 132.611067,42.5636 C137.765733,42.5636 141.9444,44.5102667 141.9444,46.9129333" id="Fill-79" fill="#0F4634"></path>
                    <path d="M141.9444,46.9129333 C141.9444,49.3156 137.765733,51.2622667 132.611067,51.2622667 C127.4564,51.2622667 123.277733,49.3156 123.277733,46.9129333 C123.277733,44.5102667 127.4564,42.5636 132.611067,42.5636 C137.765733,42.5636 141.9444,44.5102667 141.9444,46.9129333 Z" id="Stroke-81" stroke="#2CD098"></path>
                    <path d="M123.277733,41.6114667 L123.277733,46.9968 L123.291067,46.9968 C123.429733,49.3428 127.543733,51.2254667 132.611067,51.2254667 C137.6784,51.2254667 141.7924,49.3428 141.931067,46.9968 L141.9444,46.9968 L141.9444,41.6114667 L123.277733,41.6114667 Z" id="Fill-83" fill="#0A3226"></path>
                    <path d="M123.277733,41.6114667 L123.277733,46.9968 L123.291067,46.9968 C123.429733,49.3428 127.543733,51.2254667 132.611067,51.2254667 C137.6784,51.2254667 141.7924,49.3428 141.931067,46.9968 L141.9444,46.9968 L141.9444,41.6114667 L123.277733,41.6114667 Z" id="Stroke-85" stroke="#2CD098"></path>
                    <path d="M141.9444,41.6114667 C141.9444,44.0141333 137.765733,45.9614667 132.611067,45.9614667 C127.4564,45.9614667 123.277733,44.0141333 123.277733,41.6114667 C123.277733,39.2094667 127.4564,37.2621333 132.611067,37.2621333 C137.765733,37.2621333 141.9444,39.2094667 141.9444,41.6114667" id="Fill-87" fill="#0F4634"></path>
                    <path d="M141.9444,41.6114667 C141.9444,44.0141333 137.765733,45.9614667 132.611067,45.9614667 C127.4564,45.9614667 123.277733,44.0141333 123.277733,41.6114667 C123.277733,39.2094667 127.4564,37.2621333 132.611067,37.2621333 C137.765733,37.2621333 141.9444,39.2094667 141.9444,41.6114667 Z" id="Stroke-89" stroke="#2CD098"></path>
                    <path d="M123.277733,36.3100667 L123.277733,41.6954 L123.291067,41.6954 C123.429733,44.0414 127.543733,45.9247333 132.611067,45.9247333 C137.6784,45.9247333 141.7924,44.0414 141.931067,41.6954 L141.9444,41.6954 L141.9444,36.3100667 L123.277733,36.3100667 Z" id="Fill-91" fill="#0A3226"></path>
                    <path d="M123.277733,36.3100667 L123.277733,41.6954 L123.291067,41.6954 C123.429733,44.0414 127.543733,45.9247333 132.611067,45.9247333 C137.6784,45.9247333 141.7924,44.0414 141.931067,41.6954 L141.9444,41.6954 L141.9444,36.3100667 L123.277733,36.3100667 Z" id="Stroke-93" stroke="#2CD098"></path>
                    <path d="M141.9444,36.3106667 C141.9444,38.7133333 137.765733,40.66 132.611067,40.66 C127.4564,40.66 123.277733,38.7133333 123.277733,36.3106667 C123.277733,33.908 127.4564,31.9613333 132.611067,31.9613333 C137.765733,31.9613333 141.9444,33.908 141.9444,36.3106667" id="Fill-95" fill="#0F4634"></path>
                    <path d="M141.9444,36.3106667 C141.9444,38.7133333 137.765733,40.66 132.611067,40.66 C127.4564,40.66 123.277733,38.7133333 123.277733,36.3106667 C123.277733,33.908 127.4564,31.9613333 132.611067,31.9613333 C137.765733,31.9613333 141.9444,33.908 141.9444,36.3106667 Z" id="Stroke-97" stroke="#2CD098"></path>
                    <polyline id="Stroke-99" stroke="#2CD098" stroke-width="2" stroke-linecap="round" stroke-linejoin="round" points="81.5294 29.1277333 74.2567333 36.4004 66.9840667 29.1277333"></polyline>
                    <path d="M74,36.4005333 L74,49.1278667" id="Stroke-101" stroke="#2CD098" stroke-width="2" stroke-linecap="round" stroke-linejoin="round"></path>
                    <path d="M66.9841333,38 L81.5294667,38" id="Stroke-103" stroke="#2CD098" stroke-width="2" stroke-linecap="round" stroke-linejoin="round"></path>
                    <path d="M66.9841333,44 L81.5294667,44" id="Stroke-105" stroke="#2CD098" stroke-width="2" stroke-linecap="round" stroke-linejoin="round"></path>
                    <path d="M39.8610667,93.6668 C39.8610667,98.0848 46.7257333,101.6668 55.1944,101.6668 C63.6630667,101.6668 70.5277333,98.0848 70.5277333,93.6668 C70.5277333,89.2481333 63.6630667,85.6668 55.1944,85.6668 C46.7257333,85.6668 39.8610667,89.2481333 39.8610667,93.6668 Z" id="Stroke-107" stroke="#2CD098"></path>
                    <path d="M45.8610667,86.6316667 L45.8610667,92.017 L45.8744,92.017 C46.0130667,94.363 50.1270667,96.2463333 55.1944,96.2463333 C60.2617333,96.2463333 64.3757333,94.363 64.5144,92.017 L64.5277333,92.017 L64.5277333,86.6316667 L45.8610667,86.6316667 Z" id="Fill-109" fill="#0A3226"></path>
                    <path d="M45.8610667,86.6316667 L45.8610667,92.017 L45.8744,92.017 C46.0130667,94.363 50.1270667,96.2463333 55.1944,96.2463333 C60.2617333,96.2463333 64.3757333,94.363 64.5144,92.017 L64.5277333,92.017 L64.5277333,86.6316667 L45.8610667,86.6316667 Z" id="Stroke-111" stroke="#2CD098"></path>
                    <path d="M64.5277333,86.6323333 C64.5277333,89.035 60.3490667,90.9816667 55.1944,90.9816667 C50.0397333,90.9816667 45.8610667,89.035 45.8610667,86.6323333 C45.8610667,84.2296667 50.0397333,82.283 55.1944,82.283 C60.3490667,82.283 64.5277333,84.2296667 64.5277333,86.6323333" id="Fill-113" fill="#0F4634"></path>
                    <path d="M64.5277333,86.6323333 C64.5277333,89.035 60.3490667,90.9816667 55.1944,90.9816667 C50.0397333,90.9816667 45.8610667,89.035 45.8610667,86.6323333 C45.8610667,84.2296667 50.0397333,82.283 55.1944,82.283 C60.3490667,82.283 64.5277333,84.2296667 64.5277333,86.6323333 Z" id="Stroke-115" stroke="#2CD098"></path>
                    <path d="M45.8610667,81.3308667 L45.8610667,86.7162 L45.8744,86.7162 C46.0130667,89.0622 50.1270667,90.9448667 55.1944,90.9448667 C60.2617333,90.9448667 64.3757333,89.0622 64.5144,86.7162 L64.5277333,86.7162 L64.5277333,81.3308667 L45.8610667,81.3308667 Z" id="Fill-117" fill="#0A3226"></path>
                    <path d="M45.8610667,81.3308667 L45.8610667,86.7162 L45.8744,86.7162 C46.0130667,89.0622 50.1270667,90.9448667 55.1944,90.9448667 C60.2617333,90.9448667 64.3757333,89.0622 64.5144,86.7162 L64.5277333,86.7162 L64.5277333,81.3308667 L45.8610667,81.3308667 Z" id="Stroke-119" stroke="#2CD098"></path>
                    <path d="M64.5277333,81.3315333 C64.5277333,83.7335333 60.3490667,85.6808667 55.1944,85.6808667 C50.0397333,85.6808667 45.8610667,83.7335333 45.8610667,81.3315333 C45.8610667,78.9288667 50.0397333,76.9815333 55.1944,76.9815333 C60.3490667,76.9815333 64.5277333,78.9288667 64.5277333,81.3315333" id="Fill-121" fill="#0F4634"></path>
                    <path d="M64.5277333,81.3315333 C64.5277333,83.7335333 60.3490667,85.6808667 55.1944,85.6808667 C50.0397333,85.6808667 45.8610667,83.7335333 45.8610667,81.3315333 C45.8610667,78.9288667 50.0397333,76.9815333 55.1944,76.9815333 C60.3490667,76.9815333 64.5277333,78.9288667 64.5277333,81.3315333 Z" id="Stroke-123" stroke="#2CD098"></path>
                </g>
            </g>
        </g>
    </g>
</svg>