<?xml version="1.0" encoding="UTF-8"?>
<svg width="41px" height="44px" viewBox="0 0 41 44" version="1.1" xmlns="http://www.w3.org/2000/svg" xmlns:xlink="http://www.w3.org/1999/xlink">
    <!-- Generator: Sketch 49 (51002) - http://www.bohemiancoding.com/sketch -->
    <title>Page 1</title>
    <desc>Created with Sketch.</desc>
    <defs>
        <polygon id="path-1" points="20.4999756 0 0 0 0 44 20.4999756 44 40.9999512 44 40.9999512 0"></polygon>
    </defs>
    <g id="Page-1" stroke="none" stroke-width="1" fill="none" fill-rule="evenodd">
        <g id="web" transform="translate(-970.000000, -1476.000000)">
            <g id="Page-1" transform="translate(970.000000, 1476.000000)">
                <mask id="mask-2" fill="white">
                    <use xlink:href="#path-1"></use>
                </mask>
                <g id="Clip-2"></g>
                <path d="M39.0475702,30.3111111 L36.1189988,30.3111111 L36.1189988,23.6764 C36.1189988,21.2803556 34.351606,19.3316444 32.179094,19.3316444 L22.4523321,19.3316444 L22.4523321,12.7111111 L24.8928083,12.7111111 C25.9710107,12.7111111 26.8451893,11.8355111 26.8451893,10.7555556 L26.8451893,1.95555556 C26.8451893,0.8756 25.9710107,0 24.8928083,0 L16.107094,0 C15.0288917,0 14.1547131,0.8756 14.1547131,1.95555556 L14.1547131,10.7555556 C14.1547131,11.8355111 15.0288917,12.7111111 16.107094,12.7111111 L18.5475702,12.7111111 L18.5475702,19.3316444 L8.82129643,19.3316444 C6.64878452,19.3316444 4.88090357,21.2803556 4.88090357,23.6764 L4.88090357,30.3111111 L1.95233214,30.3111111 C0.874129762,30.3111111 -4.88095238e-05,31.1867111 -4.88095238e-05,32.2666667 L-4.88095238e-05,42.0444444 C-4.88095238e-05,43.1244 0.874129762,44 1.95233214,44 L11.7142369,44 C12.7924393,44 13.6666179,43.1244 13.6666179,42.0444444 L13.6666179,32.2666667 C13.6666179,31.1867111 12.7924393,30.3111111 11.7142369,30.3111111 L8.78566548,30.3111111 L8.78566548,23.6764 C8.78566548,23.4456444 8.8647369,23.3024 8.91208214,23.2427556 L32.0878202,23.2427556 C32.1356536,23.3024 32.2142369,23.4456444 32.2142369,23.6764 L32.2142369,30.3111111 L29.2856655,30.3111111 C28.2074631,30.3111111 27.3332845,31.1867111 27.3332845,32.2666667 L27.3332845,42.0444444 C27.3332845,43.1244 28.2074631,44 29.2856655,44 L39.0475702,44 C40.1257726,44 40.9999512,43.1244 40.9999512,42.0444444 L40.9999512,32.2666667 C40.9999512,31.1867111 40.1257726,30.3111111 39.0475702,30.3111111" id="Fill-1" fill="#2CD098" mask="url(#mask-2)"></path>
            </g>
        </g>
    </g>
</svg>