<?xml version="1.0" encoding="UTF-8"?>
<svg width="152px" height="121px" viewBox="0 0 152 121" version="1.1" xmlns="http://www.w3.org/2000/svg" xmlns:xlink="http://www.w3.org/1999/xlink">
    <!-- Generator: Sketch 49 (51002) - http://www.bohemiancoding.com/sketch -->
    <title>Page 1</title>
    <desc>Created with Sketch.</desc>
    <defs></defs>
    <g id="Page-1" stroke="none" stroke-width="1" fill="none" fill-rule="evenodd">
        <g id="web" transform="translate(-409.000000, -4323.000000)">
            <g id="Page-1" transform="translate(410.000000, 4324.000000)">
                <polygon id="Fill-1" fill="#0A3226" points="70.3777333 108.4886 26.1390667 108.4886 18.7664 115.861933 77.7510667 115.861933"></polygon>
                <polygon id="Fill-2" fill="#0F4634" points="18.766 118.801333 77.7506667 118.801333 77.7506667 115.852 18.766 115.852"></polygon>
                <path d="M70.3776,107.822 L26.1389333,107.822 L25.8629333,107.822 L25.6682667,108.016667 L18.4989333,115.186 L18.1082667,115.186 L18.0996,115.852667 L18.0996,118.801333 L18.0996,119.468 L18.7662667,119.468 L77.7509333,119.468 L78.4176,119.468 L78.4176,118.801333 L78.4176,115.852667 L78.4176,115.186 L78.0176,115.186 L70.8489333,108.016667 L70.6536,107.822 L70.3776,107.822 Z M18.7662667,115.852667 L18.7756,115.852667 L26.1389333,108.488667 L70.3776,108.488667 L77.7409333,115.852667 L77.7509333,115.852667 L77.7509333,118.801333 L18.7662667,118.801333 L18.7662667,115.852667 Z" id="Fill-3" fill="#2CD098"></path>
                <polygon id="Fill-4" fill="#0F4634" points="42.0266667 110.824667 54.49 110.824667 54.49 95.412 42.0266667 95.412"></polygon>
                <path d="M54.8237333,95.0784 L54.1570667,95.0784 L42.3597333,95.0784 L41.6930667,95.0784 L41.6930667,95.7450667 L41.6930667,110.491067 L41.6930667,111.157733 L42.3597333,111.157733 L54.1570667,111.157733 L54.8237333,111.157733 L54.8237333,110.491067 L54.8237333,95.7450667 L54.8237333,95.0784 Z M42.3597333,110.491067 L54.1570667,110.491067 L54.1570667,95.7450667 L42.3597333,95.7450667 L42.3597333,110.491067 Z" id="Fill-5" fill="#2CD098"></path>
                <polygon id="Fill-6" fill="#0A3226" points="0.333333333 100.282667 96.1833333 100.282667 96.1833333 41.298 0.333333333 41.298"></polygon>
                <polygon id="Stroke-7" stroke="#2CD098" points="0.333333333 100.282 96.1833333 100.282 96.1833333 41.2973333 0.333333333 41.2973333"></polygon>
                <polygon id="Fill-9" fill="#135942" points="6.23133333 94.384 90.2846667 94.384 90.2846667 47.196 6.23133333 47.196"></polygon>
                <g id="Group-28" transform="translate(50.666667, 0.134667)">
                    <path d="M2.01446667,33.7578667 C17.9931333,-13.4548 72.3164667,-11.7954667 81.6524667,44.7398667" id="Stroke-10" stroke="#2CD098"></path>
                    <path d="M6.59713333,30.5742667 C6.4858,30.4282667 6.2758,30.4009333 6.1298,30.5136 L2.08713333,33.6222667 L0.979133333,28.6442667 C0.939133333,28.4642667 0.761133333,28.3509333 0.5818,28.3916 C0.402466667,28.4316 0.289133333,28.6109333 0.328466667,28.7889333 L1.5498,34.2782667 C1.57446667,34.3896 1.65446667,34.4802667 1.7618,34.5189333 C1.86846667,34.5582667 1.98846667,34.5396 2.07846667,34.4702667 L6.53646667,31.0422667 C6.58846667,31.0022667 6.62513333,30.9489333 6.64646667,30.8916 C6.6838,30.7882667 6.66913333,30.6682667 6.59713333,30.5742667" id="Fill-12" fill="#2CD098"></path>
                    <path d="M77.6518667,40.8522667 C77.7858667,40.7269333 77.9978667,40.7336 78.1232,40.8682667 L81.6052,44.5949333 L83.5092,39.8636 C83.5785333,39.6929333 83.7725333,39.6096 83.9432,39.6782667 C84.1132,39.7476 84.1952,39.9429333 84.1278667,40.1122667 L82.0278667,45.3289333 C81.9858667,45.4349333 81.8918667,45.5116 81.7798667,45.5322667 C81.6678667,45.5529333 81.5532,45.5156 81.4752,45.4322667 L77.6358667,41.3236 C77.5912,41.2756 77.5632,41.2176 77.5518667,41.1576 C77.5312,41.0489333 77.5658667,40.9336 77.6518667,40.8522667" id="Fill-14" fill="#2CD098"></path>
                    <path d="M83.6941333,68.7025333 C80.7641333,59.2618667 85.9728,55.8438667 88.5768,56.3325333" id="Stroke-16" stroke="#2CD098" stroke-width="6" stroke-linecap="round"></path>
                    <path d="M98.0001333,69.6892 C98.7728,71.4005333 99.1454667,73.1398667 99.1181333,74.9065333 C99.0908,76.6732 98.8001333,78.4258667 98.2481333,80.1652 C97.6961333,81.9038667 96.9441333,83.6085333 95.9914667,85.2785333 C95.0394667,86.9492 94.0248,88.5432 92.9488,90.0612 C92.2861333,90.9718667 91.6721333,91.6552 91.1054667,92.1105333 C90.5401333,92.5665333 89.9874667,92.8632 89.4494667,93.0012 C88.9114667,93.1392 88.3734667,93.1805333 87.8348,93.1252 C87.2961333,93.0705333 86.7234667,92.9872 86.1161333,92.8772 C85.5094667,92.7665333 84.8528,92.6765333 84.1494667,92.6078667 C83.4454667,92.5385333 82.6654667,92.5732 81.8101333,92.7112 C80.4021333,92.9598667 79.2568,93.1045333 78.3734667,93.1465333 C77.4894667,93.1878667 76.7094667,93.0358667 76.0341333,92.6905333 C75.3574667,92.3458667 74.7021333,91.7658667 74.0674667,90.9518667 C73.4314667,90.1372 72.6454667,88.9985333 71.7068,87.5358667 C70.5194667,85.6858667 69.5401333,83.7812 68.7668,81.8212 C67.9941333,79.8612 67.5108,77.9705333 67.3174667,76.1485333 C67.1248,74.3272 67.2761333,72.6358667 67.7734667,71.0765333 C68.2701333,69.5165333 69.1948,68.1985333 70.5474667,67.1218667 C71.9554667,65.9905333 73.4661333,65.3138667 75.0814667,65.0932 C76.6961333,64.8725333 78.2488,65.0105333 79.7394667,65.5072 C80.3194667,65.7278667 80.9334667,66.0112 81.5821333,66.3558667 C82.2308,66.7012 82.9694667,66.8738667 83.7974667,66.8738667 C84.2114667,66.8738667 84.6254667,66.8112 85.0401333,66.6872 C85.4541333,66.5632 85.8541333,66.4178667 86.2401333,66.2525333 L87.4001333,65.7558667 C87.7861333,65.5898667 88.1728,65.4798667 88.5594667,65.4245333 C89.5254667,65.2585333 90.4708,65.1892 91.3954667,65.2172 C92.3201333,65.2445333 93.1894667,65.4038667 94.0041333,65.6932 C94.8188,65.9832 95.5641333,66.4525333 96.2401333,67.1012 C96.9161333,67.7498667 97.5028,68.6125333 98.0001333,69.6892" id="Fill-18" fill="#0F4634"></path>
                    <path d="M98.0001333,69.6892 C98.7728,71.4005333 99.1454667,73.1398667 99.1181333,74.9065333 C99.0908,76.6732 98.8001333,78.4258667 98.2481333,80.1652 C97.6961333,81.9038667 96.9441333,83.6085333 95.9914667,85.2785333 C95.0394667,86.9492 94.0248,88.5432 92.9488,90.0612 C92.2861333,90.9718667 91.6721333,91.6552 91.1054667,92.1105333 C90.5401333,92.5665333 89.9874667,92.8632 89.4494667,93.0012 C88.9114667,93.1392 88.3734667,93.1805333 87.8348,93.1252 C87.2961333,93.0705333 86.7234667,92.9872 86.1161333,92.8772 C85.5094667,92.7665333 84.8528,92.6765333 84.1494667,92.6078667 C83.4454667,92.5385333 82.6654667,92.5732 81.8101333,92.7112 C80.4021333,92.9598667 79.2568,93.1045333 78.3734667,93.1465333 C77.4894667,93.1878667 76.7094667,93.0358667 76.0341333,92.6905333 C75.3574667,92.3458667 74.7021333,91.7658667 74.0674667,90.9518667 C73.4314667,90.1372 72.6454667,88.9985333 71.7068,87.5358667 C70.5194667,85.6858667 69.5401333,83.7812 68.7668,81.8212 C67.9941333,79.8612 67.5108,77.9705333 67.3174667,76.1485333 C67.1248,74.3272 67.2761333,72.6358667 67.7734667,71.0765333 C68.2701333,69.5165333 69.1948,68.1985333 70.5474667,67.1218667 C71.9554667,65.9905333 73.4661333,65.3138667 75.0814667,65.0932 C76.6961333,64.8725333 78.2488,65.0105333 79.7394667,65.5072 C80.3194667,65.7278667 80.9334667,66.0112 81.5821333,66.3558667 C82.2308,66.7012 82.9694667,66.8738667 83.7974667,66.8738667 C84.2114667,66.8738667 84.6254667,66.8112 85.0401333,66.6872 C85.4541333,66.5632 85.8541333,66.4178667 86.2401333,66.2525333 L87.4001333,65.7558667 C87.7861333,65.5898667 88.1728,65.4798667 88.5594667,65.4245333 C89.5254667,65.2585333 90.4708,65.1892 91.3954667,65.2172 C92.3201333,65.2445333 93.1894667,65.4038667 94.0041333,65.6932 C94.8188,65.9832 95.5641333,66.4525333 96.2401333,67.1012 C96.9161333,67.7498667 97.5028,68.6125333 98.0001333,69.6892 Z" id="Stroke-20" stroke="#2CD098"></path>
                    <path d="M71.8436,60.9226 C70.1496,60.0419333 69.0556,58.2032667 68.7796,57.6512667 C68.7762667,57.6446 68.7736,57.6386 68.7702667,57.6319333 C68.3276,56.7006 69.0729333,55.6386 70.1036,55.6772667 C70.2842667,55.6839333 72.7822667,55.4752667 74.7009333,56.6992667 C77.5229333,58.4992667 78.1096,61.4192667 78.3029333,62.0819333 C77.5302667,62.1092667 74.1602667,62.1272667 71.8436,60.9226" id="Fill-22" fill="#0F4634"></path>
                    <path d="M71.8436,60.9226 C70.1496,60.0419333 69.0556,58.2032667 68.7796,57.6512667 C68.7762667,57.6446 68.7736,57.6386 68.7702667,57.6319333 C68.3276,56.7006 69.0729333,55.6386 70.1036,55.6772667 C70.2842667,55.6839333 72.7822667,55.4752667 74.7009333,56.6992667 C77.5229333,58.4992667 78.1096,61.4192667 78.3029333,62.0819333 C77.5302667,62.1092667 74.1602667,62.1272667 71.8436,60.9226 Z" id="Stroke-24" stroke="#2CD098" stroke-linecap="round" stroke-linejoin="round"></path>
                    <path d="M83.6941333,68.7025333 C80.7641333,59.2618667 85.9728,55.8438667 88.5768,56.3325333" id="Stroke-26" stroke="#0F4634" stroke-width="4" stroke-linecap="round"></path>
                </g>
            </g>
        </g>
    </g>
</svg>