<?xml version="1.0" encoding="UTF-8"?>
<svg width="58px" height="66px" viewBox="0 0 58 66" version="1.1" xmlns="http://www.w3.org/2000/svg" xmlns:xlink="http://www.w3.org/1999/xlink">
    <!-- Generator: Sketch 49 (51002) - http://www.bohemiancoding.com/sketch -->
    <title>Page 1</title>
    <desc>Created with Sketch.</desc>
    <defs>
        <polygon id="path-1" points="28.60011 66.0002933 57.2 66.0002933 57.2 0.000293333333 28.60011 0.000293333333 0.00022 0.000293333333 0.00022 66.0002933"></polygon>
    </defs>
    <g id="Page-1" stroke="none" stroke-width="1" fill="none" fill-rule="evenodd" opacity="0.8">
        <g id="h5" transform="translate(-628.000000, -5517.000000)">
            <g id="Group-8" transform="translate(60.000000, 2420.000000)">
                <g id="Page-1" transform="translate(568.000000, 3097.000000)">
                    <mask id="mask-2" fill="white">
                        <use xlink:href="#path-1"></use>
                    </mask>
                    <g id="Clip-2"></g>
                    <path d="M51.3335533,60.1336267 L12.4668867,60.1336267 C8.82735333,60.1336267 5.86688667,57.17316 5.86688667,53.5336267 C5.86688667,49.8940933 8.82735333,46.9336267 12.4668867,46.9336267 L36.6668867,46.9336267 L36.67202,46.9336267 L39.60022,46.9336267 C41.2201533,46.9336267 42.5335533,45.6202267 42.5335533,44.0002933 L42.5335533,41.06696 L42.5335533,16.0412267 C44.9586867,18.2140933 47.9873533,19.72476 51.3335533,20.2894267 L51.3335533,60.1336267 Z M54.2668867,14.66696 C47.79742,14.66696 42.5335533,9.40309333 42.5335533,2.93362667 C42.5335533,1.31296 41.2201533,0.000293333333 39.60022,0.000293333333 L9.53355333,0.000293333333 C4.26822,0.000293333333 0.00022,4.26829333 0.00022,9.53362667 L0.00022,53.5336267 C0.00022,60.4078933 5.59262,66.0002933 12.4668867,66.0002933 L51.3335533,66.0002933 C54.5682867,66.0002933 57.20022,63.36836 57.20022,60.1336267 L57.20022,17.6002933 C57.20022,15.98036 55.88682,14.66696 54.2668867,14.66696 Z" id="Fill-1" fill="#2CD098" mask="url(#mask-2)"></path>
                </g>
            </g>
        </g>
    </g>
</svg>