<?xml version="1.0" encoding="UTF-8"?>
<svg width="100px" height="110px" viewBox="0 0 100 110" version="1.1" xmlns="http://www.w3.org/2000/svg" xmlns:xlink="http://www.w3.org/1999/xlink">
    <!-- Generator: Sketch 49 (51002) - http://www.bohemiancoding.com/sketch -->
    <title>Page 1</title>
    <desc>Created with Sketch.</desc>
    <defs>
        <polygon id="path-1" points="0 109.466019 99.6898936 109.466019 99.6898936 0.322524272 0 0.322524272"></polygon>
    </defs>
    <g id="Page-1" stroke="none" stroke-width="1" fill="none" fill-rule="evenodd">
        <g id="web" transform="translate(-136.000000, -2539.000000)">
            <g id="Page-1" transform="translate(136.000000, 2539.000000)">
                <polygon id="Fill-1" fill="#0A3226" points="9.70755319 98.830835 20.8112766 108.909718 98.271383 101.500738 23.0054255 91.0213689 9.77404255 86.0820485"></polygon>
                <g id="Group-56" transform="translate(0.000000, 0.211456)">
                    <path d="M98.0939894,86.0265146 C95.0796277,89.8535534 96.1434574,99.0198641 97.5620745,100.977971 C95.4344149,100.977971 21.4982447,107.296563 21.4982447,107.296563 L11.0370745,98.5750583 L11.0370745,86.3826796 C11.0370745,86.3826796 96.9413298,84.8693786 98.0939894,86.0265146 Z" id="Fill-2" fill="#135942"></path>
                    <polygon id="Fill-4" fill="#0A3226" points="99.4237766 85.2255437 21.2322872 90.2983592 9.84026596 85.4033592 79.9200532 78.1946214"></polygon>
                    <polygon id="Fill-6" fill="#0F4634" points="21.2322872 91.6333107 99.4237766 86.5604951 99.4237766 85.2255437 21.2322872 90.2983592"></polygon>
                    <polygon id="Fill-8" fill="#0F4634" points="20.7003723 109.198869 98.8918617 102.245908 98.8918617 100.910956 20.7003723 107.863917"></polygon>
                    <polygon id="Fill-10" fill="#0A3226" points="9.37510638 98.1745728 20.7224468 107.897291 20.7224468 109.232243 9.37510638 99.2868544"></polygon>
                    <polygon id="Fill-12" fill="#0A3226" points="9.86803191 85.4033592 21.2212234 90.2983592 21.2212234 91.6333107 9.86803191 86.4878738"></polygon>
                    <mask id="mask-2" fill="white">
                        <use xlink:href="#path-1"></use>
                    </mask>
                    <g id="Clip-15"></g>
                    <polygon id="Fill-14" fill="#0A3226" mask="url(#mask-2)" points="9.30851064 99.2867476 10.0175532 99.2867476 10.0175532 85.4032524 9.30851064 85.4032524"></polygon>
                    <path d="M9.84053191,85.4033592 L79.9203191,78.1946214 L99.4240426,85.2255437 L99.4240426,86.5604951 L97.7580851,86.5209806 C95.2479787,90.3891359 96.1708511,98.9595243 97.5203191,100.911223 L98.8921277,100.911223 L98.8921277,102.246175 L20.7006383,109.199136 L20.6894681,109.199136 L9.37510638,99.2868544 L9.30861702,99.2868544 L9.30861702,85.4033592 L9.84053191,85.4033592 Z" id="Stroke-16" stroke="#2CD098" stroke-linecap="round" stroke-linejoin="round" mask="url(#mask-2)"></path>
                    <polygon id="Fill-17" fill="#0A3226" mask="url(#mask-2)" points="7.00356383 88.5186019 91.5780319 84.8693786 88.8296277 77.8389903 16.1349468 80.7758835"></polygon>
                    <polygon id="Fill-18" fill="#0F4634" mask="url(#mask-2)" points="91.5780319 87.005301 7.00356383 90.5210291 7.00356383 88.5186019 91.5780319 84.8693786"></polygon>
                    <path d="M7.62404255,75.3469029 C10.6384043,79.1739417 9.04265957,86.2043301 7.62404255,88.1624369 C9.75170213,88.1624369 88.652234,84.7807379 88.652234,84.7807379 L89.0070213,69.650932 C89.0070213,69.650932 8.77670213,74.189767 7.62404255,75.3469029" id="Fill-19" fill="#135942" mask="url(#mask-2)"></path>
                    <polygon id="Fill-20" fill="#0A3226" mask="url(#mask-2)" points="5.93973404 74.6350534 90.5142021 70.9858301 87.7657979 63.9554417 15.071117 66.892335"></polygon>
                    <polygon id="Fill-21" fill="#0F4634" mask="url(#mask-2)" points="90.5142021 73.1218058 5.93973404 76.637534 5.93973404 74.6351068 90.5142021 70.9858835"></polygon>
                    <path d="M88.8298936,77.8389903 L88.815,77.8395243 L88.9240426,73.1880194 L90.5144681,73.1218058 L90.5144681,70.9858835 L87.7660638,63.9554951 L15.0708511,66.8923883 L5.94,74.6351068 L5.94,76.637534 L8.35648936,76.5371456 C10.2048936,80.2493786 9.06393617,85.6901068 7.85329787,87.7977282 L7.00382979,88.5186019 L7.00382979,90.5210291 L91.5782979,87.005301 L91.5782979,84.8693786 L88.8298936,77.8389903 Z" id="Stroke-22" stroke="#2CD098" stroke-linecap="round" stroke-linejoin="round" mask="url(#mask-2)"></path>
                    <polygon id="Fill-23" fill="#0A3226" mask="url(#mask-2)" points="92.1099468 64.0889369 80.4743085 72.0318981 3.01420213 71.564665 78.8120745 56.2794709 92.0434574 51.3401505"></polygon>
                    <path d="M3.72351064,58.4373398 C6.73787234,62.2643786 5.14212766,69.295301 3.72351064,71.2528738 C5.85117021,71.2528738 79.7873404,70.6302524 79.7873404,70.6302524 L90.7804255,64.0441359 L90.7804255,51.8517573 C90.7804255,51.8517573 4.87617021,57.2807379 3.72351064,58.4373398" id="Fill-24" fill="#135942" mask="url(#mask-2)"></path>
                    <polygon id="Fill-25" fill="#0A3226" mask="url(#mask-2)" points="2.3937234 57.6363689 80.5852128 55.7674369 91.977234 50.8729709 21.8974468 50.6059806"></polygon>
                    <polygon id="Fill-26" fill="#0F4634" mask="url(#mask-2)" points="80.5852128 57.1023883 2.3937234 58.9713204 2.3937234 57.6363689 80.5852128 55.7674369"></polygon>
                    <polygon id="Fill-27" fill="#0F4634" mask="url(#mask-2)" points="80.5852128 72.5325049 2.3937234 72.5212913 2.3937234 71.1863398 80.5852128 71.1975534"></polygon>
                    <polygon id="Fill-28" fill="#0A3226" mask="url(#mask-2)" points="92.4423936 63.6436505 80.5631383 71.2309806 80.5631383 72.565932 92.4423936 64.756466"></polygon>
                    <polygon id="Fill-29" fill="#0A3226" mask="url(#mask-2)" points="91.9491489 50.8729175 80.5959574 55.7673835 80.5959574 57.102335 91.9491489 51.957432"></polygon>
                    <polygon id="Fill-30" fill="#0A3226" mask="url(#mask-2)" points="91.8 64.7563592 92.5090426 64.7563592 92.5090426 50.8728641 91.8 50.8728641"></polygon>
                    <path d="M91.9769681,50.8729175 L21.8971809,50.6059272 L2.39345745,57.6363155 L2.39345745,58.971267 L4.05941489,58.9317524 C6.56952128,62.8004417 5.11473404,69.2343738 3.76526596,71.1866068 L2.39345745,71.1860728 L2.39345745,72.5210243 L80.5849468,72.5327718 L80.596117,72.5327718 L92.4423936,64.7564126 L92.508883,64.7564126 L92.508883,50.8729175 L91.9769681,50.8729175 Z" id="Stroke-31" stroke="#2CD098" stroke-linecap="round" stroke-linejoin="round" mask="url(#mask-2)"></path>
                    <polygon id="Fill-32" fill="#0A3226" mask="url(#mask-2)" points="7.57989362 48.6035 18.683617 58.6823835 96.1437234 51.2734029 20.877766 40.794034 7.64638298 35.8547136"></polygon>
                    <path d="M95.9663298,36.0101553 C92.9519681,39.8371942 94.0157979,49.0040388 95.4344149,50.9616117 C93.3067553,50.9616117 19.3705851,57.2807379 19.3705851,57.2807379 L8.90941489,48.558699 L8.90941489,36.3663204 C8.90941489,36.3663204 94.8136702,34.8535534 95.9663298,36.0101553" id="Fill-33" fill="#135942" mask="url(#mask-2)"></path>
                    <polygon id="Fill-34" fill="#0A3226" mask="url(#mask-2)" points="97.296117 35.2091845 19.1046277 40.282 7.71260638 35.387534 77.7923936 28.1787961"></polygon>
                    <polygon id="Fill-35" fill="#0F4634" mask="url(#mask-2)" points="19.1046277 41.6169515 97.296117 36.5441359 97.296117 35.2091845 19.1046277 40.282"></polygon>
                    <polygon id="Fill-36" fill="#0F4634" mask="url(#mask-2)" points="18.5727128 59.1829903 96.7642021 52.2300291 96.7642021 50.8950777 18.5727128 57.8480388"></polygon>
                    <polygon id="Fill-37" fill="#0A3226" mask="url(#mask-2)" points="7.24744681 48.1582136 18.5947872 57.881466 18.5947872 59.2164175 7.24744681 49.2710291"></polygon>
                    <polygon id="Fill-38" fill="#0A3226" mask="url(#mask-2)" points="7.74037234 35.387534 19.0935638 40.282 19.0935638 41.6169515 7.74037234 36.4720485"></polygon>
                    <polygon id="Fill-39" fill="#0A3226" mask="url(#mask-2)" points="7.18085106 49.2709223 7.88989362 49.2709223 7.88989362 35.3874272 7.18085106 35.3874272"></polygon>
                    <path d="M7.71287234,35.387534 L77.7926596,28.1787961 L97.296383,35.2091845 L97.296383,36.5441359 L95.6304255,36.5046214 C93.1203191,40.3733107 94.0431915,48.943165 95.3926596,50.8953981 L96.7644681,50.8948641 L96.7644681,52.2298155 L18.5729787,59.1827767 L18.5618085,59.1827767 L7.24744681,49.2710291 L7.18095745,49.2710291 L7.18095745,35.387534 L7.71287234,35.387534 Z" id="Stroke-40" stroke="#2CD098" stroke-linecap="round" stroke-linejoin="round" mask="url(#mask-2)"></path>
                    <polygon id="Fill-41" fill="#0A3226" mask="url(#mask-2)" points="4.87590426 38.5022427 89.4503723 34.8535534 86.7019681 27.8226311 14.0072872 30.7595243"></polygon>
                    <polygon id="Fill-42" fill="#0F4634" mask="url(#mask-2)" points="89.4503723 36.9894757 4.87590426 40.5046699 4.87590426 38.5022427 89.4503723 34.8535534"></polygon>
                    <path d="M5.49638298,25.3305437 C8.51074468,29.1575825 6.915,36.1885049 5.49638298,38.1460777 C7.62404255,38.1460777 86.5245745,34.7643786 86.5245745,34.7643786 L86.8793617,19.6351068 C86.8793617,19.6351068 6.64904255,24.1739417 5.49638298,25.3305437" id="Fill-43" fill="#135942" mask="url(#mask-2)"></path>
                    <polygon id="Fill-44" fill="#0A3226" mask="url(#mask-2)" points="3.81207447 24.6187476 88.3865426 20.9700583 85.6381383 13.9391359 12.9434574 16.8760291"></polygon>
                    <polygon id="Fill-45" fill="#0F4634" mask="url(#mask-2)" points="88.3865426 23.1059806 3.81207447 26.6211748 3.81207447 24.6187476 88.3865426 20.9700583"></polygon>
                    <path d="M86.702234,27.8226311 L86.6873404,27.823165 L86.796383,23.1716602 L88.3868085,23.1059806 L88.3868085,20.9700583 L85.6384043,13.9391359 L12.9431915,16.8760291 L3.81234043,24.6187476 L3.81234043,26.6211748 L6.22882979,26.5207864 C8.07723404,30.2330194 6.9362766,35.6737476 5.7256383,37.7813689 L4.87617021,38.5022427 L4.87617021,40.5046699 L89.4506383,36.9894757 L89.4506383,34.8535534 L86.702234,27.8226311 Z" id="Stroke-46" stroke="#2CD098" stroke-linecap="round" stroke-linejoin="round" mask="url(#mask-2)"></path>
                    <polygon id="Fill-47" fill="#0A3226" mask="url(#mask-2)" points="89.9822872 14.0726311 78.3466489 22.0155922 0.886542553 21.5483592 76.6844149 6.26316505 89.9157979 1.32384466"></polygon>
                    <path d="M1.59585106,8.42151456 C4.61021277,12.2480194 3.01446809,19.2789417 1.59585106,21.2370485 C3.72351064,21.2370485 77.6596809,20.6138932 77.6596809,20.6138932 L88.652766,14.0283107 L88.652766,1.83539806 C88.652766,1.83539806 2.74851064,7.26437864 1.59585106,8.42151456" id="Fill-48" fill="#135942" mask="url(#mask-2)"></path>
                    <polygon id="Fill-49" fill="#0A3226" mask="url(#mask-2)" points="0.26606383 7.62054369 78.4575532 5.75161165 89.8495745 0.85661165 19.7697872 0.589621359"></polygon>
                    <polygon id="Fill-50" fill="#0F4634" mask="url(#mask-2)" points="78.4575532 7.08656311 0.26606383 8.95549515 0.26606383 7.62054369 78.4575532 5.75161165"></polygon>
                    <polygon id="Fill-51" fill="#0F4634" mask="url(#mask-2)" points="78.4575532 22.516199 0.26606383 22.5049854 0.26606383 21.170034 78.4575532 21.1812476"></polygon>
                    <polygon id="Fill-52" fill="#0A3226" mask="url(#mask-2)" points="90.314734 13.6278252 78.4354787 21.2146214 78.4354787 22.5495728 90.314734 14.7401068"></polygon>
                    <polygon id="Fill-53" fill="#0A3226" mask="url(#mask-2)" points="89.8214894 0.85661165 78.4682979 5.75161165 78.4682979 7.08656311 89.8214894 1.94112621"></polygon>
                    <polygon id="Fill-54" fill="#0A3226" mask="url(#mask-2)" points="89.6723404 14.74 90.381383 14.74 90.381383 0.856504854 89.6723404 0.856504854"></polygon>
                    <path d="M89.8493085,0.85661165 L19.7695213,0.589621359 L0.265797872,7.62054369 L0.265797872,8.95549515 L1.93175532,8.9154466 C4.4418617,12.7841359 2.98707447,19.2186019 1.63760638,21.170301 L0.265797872,21.170301 L0.265797872,22.5052524 L78.4572872,22.516466 L78.4684574,22.516466 L90.314734,14.7401068 L90.3812234,14.7401068 L90.3812234,0.85661165 L89.8493085,0.85661165 Z" id="Stroke-55" stroke="#2CD098" stroke-linecap="round" stroke-linejoin="round" mask="url(#mask-2)"></path>
                </g>
            </g>
        </g>
    </g>
</svg>