<?xml version="1.0" encoding="UTF-8"?>
<svg width="66px" height="50px" viewBox="0 0 66 50" version="1.1" xmlns="http://www.w3.org/2000/svg" xmlns:xlink="http://www.w3.org/1999/xlink">
    <!-- Generator: Sketch 49 (51002) - http://www.bohemiancoding.com/sketch -->
    <title>Page 1</title>
    <desc>Created with Sketch.</desc>
    <defs></defs>
    <g id="Page-1" stroke="none" stroke-width="1" fill="none" fill-rule="evenodd" opacity="0.8">
        <g id="h5" transform="translate(-624.000000, -6059.000000)" fill="#2CD098">
            <g id="Group-8" transform="translate(60.000000, 2420.000000)">
                <g id="Page-1" transform="translate(564.000000, 3639.000000)">
                    <path d="M36.6652,26.8697733 C35.5857333,27.73364 34.2928667,28.1655733 33,28.1655733 C31.7064,28.1655733 30.4142667,27.73364 29.3348,26.8697733 L4.76593333,7.21424 C2.84533333,5.67790667 0,7.04557333 0,9.50444 L0,46.93304 C0,48.5529733 1.3134,49.8663733 2.93333333,49.8663733 L63.0666667,49.8663733 C64.6866,49.8663733 66,48.5529733 66,46.93304 L66,9.50444 C66,7.04557333 63.1546667,5.67790667 61.2340667,7.21424 L36.6652,26.8697733 Z" id="Fill-1"></path>
                    <path d="M52.4991867,0 L13.50052,0 C10.7277867,0 9.50312,3.49213333 11.66792,5.22353333 L31.1672533,20.8237333 C32.2386533,21.6802667 33.7610533,21.6802667 34.8324533,20.8237333 L54.3317867,5.22353333 C56.4965867,3.49213333 55.27192,0 52.4991867,0" id="Fill-3"></path>
                </g>
            </g>
        </g>
    </g>
</svg>