<?xml version="1.0" encoding="UTF-8"?>
<svg width="56px" height="56px" viewBox="0 0 56 56" version="1.1" xmlns="http://www.w3.org/2000/svg" xmlns:xlink="http://www.w3.org/1999/xlink">
    <!-- Generator: Sketch 49 (51002) - http://www.bohemiancoding.com/sketch -->
    <title>Page 1</title>
    <desc>Created with Sketch.</desc>
    <defs></defs>
    <g id="Page-1" stroke="none" stroke-width="1" fill="none" fill-rule="evenodd" opacity="0.8">
        <g id="web" transform="translate(-613.000000, -832.000000)" fill="#2CD098">
            <g id="Page-1" transform="translate(613.000000, 832.000000)">
                <path d="M34.2922462,12.7202462 L35.0571692,17.7608615 L30.1507077,22.6679385 C29.3974769,22.3387077 28.5667077,22.1534769 27.6922462,22.1534769 C24.2934769,22.1534769 21.5384,24.9091692 21.5384,28.3073231 C21.5384,31.7067077 24.2934769,34.4611692 27.6922462,34.4611692 C31.0910154,34.4611692 33.8460923,31.7067077 33.8460923,28.3073231 C33.8460923,27.5971692 33.7193231,26.9171692 33.4977846,26.2820923 L38.5359385,21.2445538 L42.9236308,21.9104 L45.7544,22.3393231 L50.6165538,17.4765538 L52.3617846,15.7319385 L55.4793231,12.6150154 L45.2934769,11.0691692 L45.2953231,11.0679385 L45.2504,11.0617846 L45.2430154,11.0667077 L45.2368615,11.0224 L45.2350154,11.0236308 L43.6897846,0.8384 L33.9654769,10.5627077 L34.2922462,12.7202462 Z" id="Fill-1"></path>
                <path d="M50.2002462,24.8560615 C50.3719385,25.9816 50.4617846,27.1342154 50.4617846,28.3071385 C50.4617846,40.8628308 40.2470154,51.0763692 27.6925538,51.0763692 C15.1368615,51.0763692 4.92332308,40.8628308 4.92332308,28.3071385 C4.92332308,15.7526769 15.1368615,5.53790769 27.6925538,5.53790769 C29.0507077,5.53790769 30.3787077,5.66467692 31.6722462,5.89421538 L35.7540923,1.81113846 C33.2033231,1.03575385 30.4968615,0.614830769 27.6925538,0.614830769 C12.3977846,0.614830769 0.000246153846,13.0136 0.000246153846,28.3071385 C0.000246153846,43.6019077 12.3977846,55.9994462 27.6925538,55.9994462 C42.9860923,55.9994462 55.3848615,43.6019077 55.3848615,28.3071385 C55.3848615,25.6788308 55.0100923,23.1391385 54.3257846,20.7299077 L50.2002462,24.8560615 Z" id="Fill-5"></path>
                <path d="M27.6924308,16.3073846 C28.4438154,16.3073846 29.1755077,16.3855385 29.8887385,16.5184615 L29.1201231,11.4489231 C28.6493538,11.4095385 28.1736615,11.3843077 27.6924308,11.3843077 C18.3459692,11.3843077 10.7693538,18.9609231 10.7693538,28.3073846 C10.7693538,37.6538462 18.3459692,45.2304615 27.6924308,45.2304615 C37.0388923,45.2304615 44.6155077,37.6538462 44.6155077,28.3073846 C44.6155077,27.9141538 44.5970462,27.5252308 44.5712,27.1393846 L39.5219692,26.3732308 C39.6247385,27.0046154 39.6924308,27.6476923 39.6924308,28.3073846 C39.6924308,34.9246154 34.3090462,40.3073846 27.6924308,40.3073846 C21.0752,40.3073846 15.6924308,34.9246154 15.6924308,28.3073846 C15.6924308,21.6907692 21.0752,16.3073846 27.6924308,16.3073846" id="Fill-3"></path>
            </g>
        </g>
    </g>
</svg>