<?xml version="1.0" encoding="UTF-8"?>
<svg width="66px" height="57px" viewBox="0 0 66 57" version="1.1" xmlns="http://www.w3.org/2000/svg" xmlns:xlink="http://www.w3.org/1999/xlink">
    <!-- Generator: Sketch 49 (51002) - http://www.bohemiancoding.com/sketch -->
    <title>Page 1</title>
    <desc>Created with Sketch.</desc>
    <defs>
        <polygon id="path-1" points="0.000146666667 24.2 66 24.2 66 0.488693333 0.000146666667 0.488693333"></polygon>
        <polygon id="path-3" points="0 56.4055067 66 56.4055067 66 -0.000293333333 0 -0.000293333333"></polygon>
    </defs>
    <g id="Page-1" stroke="none" stroke-width="1" fill="none" fill-rule="evenodd" opacity="0.8">
        <g id="h5" transform="translate(-624.000000, -5305.000000)">
            <g id="Group-8" transform="translate(60.000000, 2420.000000)">
                <g id="Page-1" transform="translate(564.000000, 2885.000000)">
                    <g id="Group-3" transform="translate(0.000000, 32.205507)">
                        <mask id="mask-2" fill="white">
                            <use xlink:href="#path-1"></use>
                        </mask>
                        <g id="Clip-2"></g>
                        <path d="M40.33348,6.35536 C40.33348,7.97602667 39.02008,9.28869333 37.4001467,9.28869333 L28.6001467,9.28869333 C26.9802133,9.28869333 25.6668133,7.97602667 25.6668133,6.35536 L25.6668133,0.488693333 L0.000146666667,0.488693333 L0.000146666667,21.26696 C0.000146666667,22.8802933 1.32014667,24.2002933 2.93348,24.2002933 L63.0668133,24.2002933 C64.6801467,24.2002933 66.0001467,22.8802933 66.0001467,21.26696 L66.0001467,0.488693333 L40.33348,0.488693333 L40.33348,6.35536 Z" id="Fill-1" fill="#2CD098" mask="url(#mask-2)"></path>
                    </g>
                    <mask id="mask-4" fill="white">
                        <use xlink:href="#path-3"></use>
                    </mask>
                    <g id="Clip-5"></g>
                    <path d="M23.4666667,12.4055067 L42.5333333,12.4055067 L42.5333333,5.86637333 L23.4666667,5.86637333 L23.4666667,12.4055067 Z M63.0666667,12.4055067 L48.4,12.4055067 L48.4,5.86637333 C48.4,2.63164 45.7680667,-0.000293333333 42.5333333,-0.000293333333 L23.4666667,-0.000293333333 C20.2319333,-0.000293333333 17.6,2.63164 17.6,5.86637333 L17.6,12.4055067 L2.93333333,12.4055067 C1.32,12.4055067 0,13.7255067 0,15.33884 L0,26.82724 L66,26.82724 L66,15.33884 C66,13.7255067 64.68,12.4055067 63.0666667,12.4055067 Z" id="Fill-4" fill="#2CD098" mask="url(#mask-4)"></path>
                </g>
            </g>
        </g>
    </g>
</svg>