<?xml version="1.0" encoding="UTF-8"?>
<svg width="131px" height="120px" viewBox="0 0 131 120" version="1.1" xmlns="http://www.w3.org/2000/svg" xmlns:xlink="http://www.w3.org/1999/xlink">
    <!-- Generator: Sketch 49 (51002) - http://www.bohemiancoding.com/sketch -->
    <title>Page 1</title>
    <desc>Created with Sketch.</desc>
    <defs>
        <polygon id="path-1" points="3.20453844e-20 -0.000177339902 3.20453844e-20 92.8077044 95.7632512 92.8077044 95.7632512 -0.000177339901"></polygon>
        <polygon id="path-3" points="0 119.408867 129.972414 119.408867 129.972414 0.172019704 0 0.172019704"></polygon>
        <polygon id="path-5" points="36.830601 33.4729064 0.18035468 33.4729064 0.18035468 0.497438424 36.830601 0.497438424 36.830601 33.4729064"></polygon>
        <polygon id="path-7" points="0.18035468 33.4729064 36.830601 33.4729064 36.830601 0.497438424 0.18035468 0.497438424 0.18035468 33.4729064"></polygon>
    </defs>
    <g id="Page-1" stroke="none" stroke-width="1" fill="none" fill-rule="evenodd">
        <g id="web" transform="translate(-985.000000, -4324.000000)">
            <g id="Page-1" transform="translate(985.000000, 4324.000000)">
                <g id="Group-92" transform="translate(0.000000, 0.419113)">
                    <path d="M104.976532,89.334798 L104.976532,96.4609064 L104.993675,96.4609064 C105.177517,99.5649458 110.621852,102.056571 117.327074,102.056571 C124.031113,102.056571 129.476039,99.5649458 129.659291,96.4609064 L129.676433,96.4609064 L129.676433,89.334798 L104.976532,89.334798 Z" id="Fill-1" fill="#0A3226"></path>
                    <path d="M104.976532,89.334798 L104.976532,96.4609064 L104.993675,96.4609064 C105.177517,99.5649458 110.621852,102.056571 117.327074,102.056571 C124.031113,102.056571 129.476039,99.5649458 129.659291,96.4609064 L129.676433,96.4609064 L129.676433,89.334798 L104.976532,89.334798 Z" id="Stroke-3" stroke="#2CD098"></path>
                    <path d="M129.676552,89.3353892 C129.676552,92.5145025 124.147094,95.0912512 117.326601,95.0912512 C110.505517,95.0912512 104.97665,92.5145025 104.97665,89.3353892 C104.97665,86.156867 110.505517,83.5801182 117.326601,83.5801182 C124.147094,83.5801182 129.676552,86.156867 129.676552,89.3353892" id="Fill-5" fill="#0F4634"></path>
                    <path d="M129.676552,89.3353892 C129.676552,92.5145025 124.147094,95.0912512 117.326601,95.0912512 C110.505517,95.0912512 104.97665,92.5145025 104.97665,89.3353892 C104.97665,86.156867 110.505517,83.5801182 117.326601,83.5801182 C124.147094,83.5801182 129.676552,86.156867 129.676552,89.3353892 Z" id="Stroke-7" stroke="#2CD098"></path>
                    <path d="M104.976532,82.3202956 L104.976532,89.4464039 L104.993675,89.4464039 C105.177517,92.5504433 110.621852,95.042069 117.327074,95.042069 C124.031113,95.042069 129.476039,92.5504433 129.659291,89.4464039 L129.676433,89.4464039 L129.676433,82.3202956 L104.976532,82.3202956 Z" id="Fill-9" fill="#0A3226"></path>
                    <path d="M104.976532,82.3202956 L104.976532,89.4464039 L104.993675,89.4464039 C105.177517,92.5504433 110.621852,95.042069 117.327074,95.042069 C124.031113,95.042069 129.476039,92.5504433 129.659291,89.4464039 L129.676433,89.4464039 L129.676433,82.3202956 L104.976532,82.3202956 Z" id="Stroke-11" stroke="#2CD098"></path>
                    <path d="M129.676552,82.3208867 C129.676552,85.5 124.147094,88.0761576 117.326601,88.0761576 C110.505517,88.0761576 104.97665,85.5 104.97665,82.3208867 C104.97665,79.1423645 110.505517,76.5656158 117.326601,76.5656158 C124.147094,76.5656158 129.676552,79.1423645 129.676552,82.3208867" id="Fill-13" fill="#0F4634"></path>
                    <path d="M129.676552,82.3208867 C129.676552,85.5 124.147094,88.0761576 117.326601,88.0761576 C110.505517,88.0761576 104.97665,85.5 104.97665,82.3208867 C104.97665,79.1423645 110.505517,76.5656158 117.326601,76.5656158 C124.147094,76.5656158 129.676552,79.1423645 129.676552,82.3208867 Z" id="Stroke-15" stroke="#2CD098"></path>
                    <path d="M104.976532,75.3057931 L104.976532,82.4319015 L104.993675,82.4319015 C105.177517,85.5359409 110.621852,88.0275665 117.327074,88.0275665 C124.031113,88.0275665 129.476039,85.5359409 129.659291,82.4319015 L129.676433,82.4319015 L129.676433,75.3057931 L104.976532,75.3057931 Z" id="Fill-17" fill="#0A3226"></path>
                    <path d="M104.976532,75.3057931 L104.976532,82.4319015 L104.993675,82.4319015 C105.177517,85.5359409 110.621852,88.0275665 117.327074,88.0275665 C124.031113,88.0275665 129.476039,85.5359409 129.659291,82.4319015 L129.676433,82.4319015 L129.676433,75.3057931 L104.976532,75.3057931 Z" id="Stroke-19" stroke="#2CD098"></path>
                    <path d="M129.676552,75.3063251 C129.676552,78.4854384 124.147094,81.0615961 117.326601,81.0615961 C110.505517,81.0615961 104.97665,78.4854384 104.97665,75.3063251 C104.97665,72.127803 110.505517,69.5510542 117.326601,69.5510542 C124.147094,69.5510542 129.676552,72.127803 129.676552,75.3063251" id="Fill-21" fill="#0F4634"></path>
                    <path d="M129.676552,75.3063251 C129.676552,78.4854384 124.147094,81.0615961 117.326601,81.0615961 C110.505517,81.0615961 104.97665,78.4854384 104.97665,75.3063251 C104.97665,72.127803 110.505517,69.5510542 117.326601,69.5510542 C124.147094,69.5510542 129.676552,72.127803 129.676552,75.3063251 Z" id="Stroke-23" stroke="#2CD098"></path>
                    <path d="M104.976532,68.2912906 L104.976532,75.417399 L104.993675,75.417399 C105.177517,78.5214384 110.621852,81.013064 117.327074,81.013064 C124.031113,81.013064 129.476039,78.5214384 129.659291,75.417399 L129.676433,75.417399 L129.676433,68.2912906 L104.976532,68.2912906 Z" id="Fill-25" fill="#0A3226"></path>
                    <path d="M104.976532,68.2912906 L104.976532,75.417399 L104.993675,75.417399 C105.177517,78.5214384 110.621852,81.013064 117.327074,81.013064 C124.031113,81.013064 129.476039,78.5214384 129.659291,75.417399 L129.676433,75.417399 L129.676433,68.2912906 L104.976532,68.2912906 Z" id="Stroke-27" stroke="#2CD098"></path>
                    <path d="M129.676552,68.2918227 C129.676552,71.4703448 124.147094,74.0470936 117.326601,74.0470936 C110.505517,74.0470936 104.97665,71.4703448 104.97665,68.2918227 C104.97665,65.1133005 110.505517,62.5365517 117.326601,62.5365517 C124.147094,62.5365517 129.676552,65.1133005 129.676552,68.2918227" id="Fill-29" fill="#0F4634"></path>
                    <path d="M129.676552,68.2918227 C129.676552,71.4703448 124.147094,74.0470936 117.326601,74.0470936 C110.505517,74.0470936 104.97665,71.4703448 104.97665,68.2918227 C104.97665,65.1133005 110.505517,62.5365517 117.326601,62.5365517 C124.147094,62.5365517 129.676552,65.1133005 129.676552,68.2918227 Z" id="Stroke-31" stroke="#2CD098"></path>
                    <path d="M91.3804729,98.2017931 L91.3804729,105.327901 L91.3976158,105.327901 C91.580867,108.431941 97.0257931,110.923567 103.731015,110.923567 C110.435054,110.923567 115.87998,108.431941 116.063232,105.327901 L116.080374,105.327901 L116.080374,98.2017931 L91.3804729,98.2017931 Z" id="Fill-33" fill="#0A3226"></path>
                    <path d="M91.3804729,98.2017931 L91.3804729,105.327901 L91.3976158,105.327901 C91.580867,108.431941 97.0257931,110.923567 103.731015,110.923567 C110.435054,110.923567 115.87998,108.431941 116.063232,105.327901 L116.080374,105.327901 L116.080374,98.2017931 L91.3804729,98.2017931 Z" id="Stroke-35" stroke="#2CD098"></path>
                    <path d="M116.080493,98.2023842 C116.080493,101.381498 110.551034,103.958246 103.730542,103.958246 C96.9100493,103.958246 91.3805911,101.381498 91.3805911,98.2023842 C91.3805911,95.0238621 96.9100493,92.4471133 103.730542,92.4471133 C110.551034,92.4471133 116.080493,95.0238621 116.080493,98.2023842" id="Fill-37" fill="#0F4634"></path>
                    <path d="M116.080493,98.2023842 C116.080493,101.381498 110.551034,103.958246 103.730542,103.958246 C96.9100493,103.958246 91.3805911,101.381498 91.3805911,98.2023842 C91.3805911,95.0238621 96.9100493,92.4471133 103.730542,92.4471133 C110.551034,92.4471133 116.080493,95.0238621 116.080493,98.2023842 Z" id="Stroke-39" stroke="#2CD098"></path>
                    <path d="M91.3804729,91.2150148 L91.3804729,98.3411232 L91.3976158,98.3411232 C91.580867,101.445163 97.0257931,103.936788 103.731015,103.936788 C110.435054,103.936788 115.87998,101.445163 116.063232,98.3411232 L116.080374,98.3411232 L116.080374,91.2150148 L91.3804729,91.2150148 Z" id="Fill-41" fill="#0A3226"></path>
                    <path d="M91.3804729,91.2150148 L91.3804729,98.3411232 L91.3976158,98.3411232 C91.580867,101.445163 97.0257931,103.936788 103.731015,103.936788 C110.435054,103.936788 115.87998,101.445163 116.063232,98.3411232 L116.080374,98.3411232 L116.080374,91.2150148 L91.3804729,91.2150148 Z" id="Stroke-43" stroke="#2CD098"></path>
                    <path d="M116.080493,91.2155468 C116.080493,94.394069 110.551034,96.9708177 103.730542,96.9708177 C96.9100493,96.9708177 91.3805911,94.394069 91.3805911,91.2155468 C91.3805911,88.0370246 96.9100493,85.4602759 103.730542,85.4602759 C110.551034,85.4602759 116.080493,88.0370246 116.080493,91.2155468" id="Fill-45" fill="#0F4634"></path>
                    <path d="M116.080493,91.2155468 C116.080493,94.394069 110.551034,96.9708177 103.730542,96.9708177 C96.9100493,96.9708177 91.3805911,94.394069 91.3805911,91.2155468 C91.3805911,88.0370246 96.9100493,85.4602759 103.730542,85.4602759 C110.551034,85.4602759 116.080493,88.0370246 116.080493,91.2155468 Z" id="Stroke-47" stroke="#2CD098"></path>
                    <path d="M91.3804729,84.2275862 L91.3804729,91.3542857 L91.3976158,91.3542857 C91.580867,94.4583251 97.0257931,96.9493596 103.731015,96.9493596 C110.435054,96.9493596 115.87998,94.4583251 116.063232,91.3542857 L116.080374,91.3542857 L116.080374,84.2275862 L91.3804729,84.2275862 Z" id="Fill-49" fill="#0A3226"></path>
                    <path d="M91.3804729,84.2275862 L91.3804729,91.3542857 L91.3976158,91.3542857 C91.580867,94.4583251 97.0257931,96.9493596 103.731015,96.9493596 C110.435054,96.9493596 115.87998,94.4583251 116.063232,91.3542857 L116.080374,91.3542857 L116.080374,84.2275862 L91.3804729,84.2275862 Z" id="Stroke-51" stroke="#2CD098"></path>
                    <path d="M116.080493,84.2281773 C116.080493,87.4072906 110.551034,89.9840394 103.730542,89.9840394 C96.9100493,89.9840394 91.3805911,87.4072906 91.3805911,84.2281773 C91.3805911,81.0496552 96.9100493,78.4729064 103.730542,78.4729064 C110.551034,78.4729064 116.080493,81.0496552 116.080493,84.2281773" id="Fill-53" fill="#0F4634"></path>
                    <path d="M116.080493,84.2281773 C116.080493,87.4072906 110.551034,89.9840394 103.730542,89.9840394 C96.9100493,89.9840394 91.3805911,87.4072906 91.3805911,84.2281773 C91.3805911,81.0496552 96.9100493,78.4729064 103.730542,78.4729064 C110.551034,78.4729064 116.080493,81.0496552 116.080493,84.2281773 Z" id="Stroke-55" stroke="#2CD098"></path>
                    <path d="M91.3804729,77.2408079 L91.3804729,84.3669163 L91.3976158,84.3669163 C91.580867,87.4709557 97.0257931,89.9625813 103.731015,89.9625813 C110.435054,89.9625813 115.87998,87.4709557 116.063232,84.3669163 L116.080374,84.3669163 L116.080374,77.2408079 L91.3804729,77.2408079 Z" id="Fill-57" fill="#0A3226"></path>
                    <path d="M91.3804729,77.2408079 L91.3804729,84.3669163 L91.3976158,84.3669163 C91.580867,87.4709557 97.0257931,89.9625813 103.731015,89.9625813 C110.435054,89.9625813 115.87998,87.4709557 116.063232,84.3669163 L116.080374,84.3669163 L116.080374,77.2408079 L91.3804729,77.2408079 Z" id="Stroke-59" stroke="#2CD098"></path>
                    <path d="M116.080493,77.241399 C116.080493,80.4199212 110.551034,82.99667 103.730542,82.99667 C96.9100493,82.99667 91.3805911,80.4199212 91.3805911,77.241399 C91.3805911,74.0628768 96.9100493,71.4861281 103.730542,71.4861281 C110.551034,71.4861281 116.080493,74.0628768 116.080493,77.241399" id="Fill-61" fill="#0F4634"></path>
                    <path d="M116.080493,77.241399 C116.080493,80.4199212 110.551034,82.99667 103.730542,82.99667 C96.9100493,82.99667 91.3805911,80.4199212 91.3805911,77.241399 C91.3805911,74.0628768 96.9100493,71.4861281 103.730542,71.4861281 C110.551034,71.4861281 116.080493,74.0628768 116.080493,77.241399 Z" id="Stroke-63" stroke="#2CD098"></path>
                    <path d="M91.3804729,70.2534384 L91.3804729,77.3801379 L91.3976158,77.3801379 C91.580867,80.4841773 97.0257931,82.9752118 103.731015,82.9752118 C110.435054,82.9752118 115.87998,80.4841773 116.063232,77.3801379 L116.080374,77.3801379 L116.080374,70.2534384 L91.3804729,70.2534384 Z" id="Fill-65" fill="#0A3226"></path>
                    <path d="M91.3804729,70.2534384 L91.3804729,77.3801379 L91.3976158,77.3801379 C91.580867,80.4841773 97.0257931,82.9752118 103.731015,82.9752118 C110.435054,82.9752118 115.87998,80.4841773 116.063232,77.3801379 L116.080374,77.3801379 L116.080374,70.2534384 L91.3804729,70.2534384 Z" id="Stroke-67" stroke="#2CD098"></path>
                    <path d="M116.080493,70.2546207 C116.080493,73.4331429 110.551034,76.0098916 103.730542,76.0098916 C96.9100493,76.0098916 91.3805911,73.4331429 91.3805911,70.2546207 C91.3805911,67.0755074 96.9100493,64.4987586 103.730542,64.4987586 C110.551034,64.4987586 116.080493,67.0755074 116.080493,70.2546207" id="Fill-69" fill="#0F4634"></path>
                    <path d="M116.080493,70.2546207 C116.080493,73.4331429 110.551034,76.0098916 103.730542,76.0098916 C96.9100493,76.0098916 91.3805911,73.4331429 91.3805911,70.2546207 C91.3805911,67.0755074 96.9100493,64.4987586 103.730542,64.4987586 C110.551034,64.4987586 116.080493,67.0755074 116.080493,70.2546207 Z" id="Stroke-71" stroke="#2CD098"></path>
                    <path d="M91.3804729,63.2666601 L91.3804729,70.3927685 L91.3976158,70.3927685 C91.580867,73.4968079 97.0257931,75.9884335 103.731015,75.9884335 C110.435054,75.9884335 115.87998,73.4968079 116.063232,70.3927685 L116.080374,70.3927685 L116.080374,63.2666601 L91.3804729,63.2666601 Z" id="Fill-73" fill="#0A3226"></path>
                    <path d="M91.3804729,63.2666601 L91.3804729,70.3927685 L91.3976158,70.3927685 C91.580867,73.4968079 97.0257931,75.9884335 103.731015,75.9884335 C110.435054,75.9884335 115.87998,73.4968079 116.063232,70.3927685 L116.080374,70.3927685 L116.080374,63.2666601 L91.3804729,63.2666601 Z" id="Stroke-75" stroke="#2CD098"></path>
                    <path d="M116.080493,63.2671921 C116.080493,66.4457143 110.551034,69.0224631 103.730542,69.0224631 C96.9100493,69.0224631 91.3805911,66.4457143 91.3805911,63.2671921 C91.3805911,60.08867 96.9100493,57.5119212 103.730542,57.5119212 C110.551034,57.5119212 116.080493,60.08867 116.080493,63.2671921" id="Fill-77" fill="#0F4634"></path>
                    <path d="M116.080493,63.2671921 C116.080493,66.4457143 110.551034,69.0224631 103.730542,69.0224631 C96.9100493,69.0224631 91.3805911,66.4457143 91.3805911,63.2671921 C91.3805911,60.08867 96.9100493,57.5119212 103.730542,57.5119212 C110.551034,57.5119212 116.080493,60.08867 116.080493,63.2671921 Z" id="Stroke-79" stroke="#2CD098"></path>
                    <polygon id="Fill-81" fill="#0A3226" points="0.295507389 119.113123 0.295507389 43.6490837 12.2618128 26.8963744 83.5016158 26.8963744 95.4679212 43.6490837 95.4679212 119.113123"></polygon>
                    <g id="Group-85" transform="translate(0.000000, 26.600985)">
                        <mask id="mask-2" fill="white">
                            <use xlink:href="#path-1"></use>
                        </mask>
                        <g id="Clip-84"></g>
                        <path d="M83.6538916,-0.000177339901 L83.3494581,-0.000177339901 L12.4134975,-0.000177339901 L12.1096552,-0.000177339901 L11.9329064,0.247507389 L0.110246305,16.7992315 L-0.000295566502,16.9535172 L-0.000295566502,17.1426798 L-0.000295566502,92.2165714 L-0.000295566502,92.8077044 L0.590837438,92.8077044 L95.1721182,92.8077044 L95.7632512,92.8077044 L95.7632512,92.2165714 L95.7632512,17.1426798 L95.7632512,16.9535172 L95.6533005,16.7992315 L83.8306404,0.247507389 L83.6538916,-0.000177339901 Z M83.3494581,0.590955665 L95.1721182,17.1426798 L95.1721182,92.2165714 L0.590837438,92.2165714 L0.590837438,17.1426798 L12.4134975,0.590955665 L83.3494581,0.590955665 Z" id="Fill-83" fill="#2CD098" mask="url(#mask-2)"></path>
                    </g>
                    <mask id="mask-4" fill="white">
                        <use xlink:href="#path-3"></use>
                    </mask>
                    <g id="Clip-87"></g>
                    <polygon id="Fill-86" fill="#135942" mask="url(#mask-4)" points="0.591133005 118.817734 95.1724138 118.817734 95.1724138 43.7438424 0.591133005 43.7438424"></polygon>
                    <polygon id="Fill-88" fill="#0A3226" mask="url(#mask-4)" points="83.3496946 27.1919409 12.413734 27.1919409 0.591073892 43.743665 95.1723547 43.743665"></polygon>
                    <polygon id="Fill-89" fill="#135942" mask="url(#mask-4)" points="75.4681182 31.3298719 20.2959015 31.3298719 15.369399 39.605734 80.3940296 39.605734"></polygon>
                    <polygon id="Stroke-90" stroke="#2CD098" mask="url(#mask-4)" points="75.4681182 31.3298719 20.2959015 31.3298719 15.369399 39.605734 80.3940296 39.605734"></polygon>
                    <path d="M54.8341478,64.2861281 C52.0989754,64.2861281 49.5559212,65.6581478 47.8818325,67.9204138 C46.2089261,65.6575567 43.6658719,64.2861281 40.9295172,64.2861281 C35.9988768,64.2861281 31.9874483,68.6717438 31.9874483,74.063468 C31.9874483,77.2792315 33.4239015,79.5355862 34.5789754,81.3485911 C37.9354286,86.6138128 46.3750345,93.1671133 46.73267,93.4431724 C47.0767094,93.7091823 47.4798621,93.8427783 47.8812414,93.8427783 C48.283803,93.8427783 48.6857734,93.7091823 49.0298128,93.4431724 C49.3880394,93.1671133 57.8276453,86.6138128 61.1835074,81.3485911 C62.3391724,79.5355862 63.7762167,77.2792315 63.7762167,74.063468 C63.7762167,68.6717438 59.7647882,64.2861281 54.8341478,64.2861281" id="Fill-91" fill="#0F4634" mask="url(#mask-4)"></path>
                </g>
                <g id="Group-111" transform="translate(28.374384, 0.419113)">
                    <path d="M36.830601,18.8225616 C36.830601,28.9433498 28.626266,37.1476847 18.5054778,37.1476847 C8.38468966,37.1476847 0.18035468,28.9433498 0.18035468,18.8225616 C0.18035468,8.7017734 8.38468966,0.497438424 18.5054778,0.497438424 C28.626266,0.497438424 36.830601,8.7017734 36.830601,18.8225616" id="Fill-93" fill="#0A3226"></path>
                    <path d="M36.830601,18.8225616 C36.830601,28.9433498 28.626266,37.1476847 18.5054778,37.1476847 C8.38468966,37.1476847 0.18035468,28.9433498 0.18035468,18.8225616 C0.18035468,8.7017734 8.38468966,0.497438424 18.5054778,0.497438424 C28.626266,0.497438424 36.830601,8.7017734 36.830601,18.8225616 Z" id="Stroke-95" stroke="#2CD098"></path>
                    <g id="Group-99" transform="translate(0.000000, 5.911330)">
                        <mask id="mask-6" fill="white">
                            <use xlink:href="#path-5"></use>
                        </mask>
                        <g id="Clip-98"></g>
                        <path d="M36.830601,18.8225616 C36.830601,28.9433498 28.626266,37.1476847 18.5054778,37.1476847 C8.38468966,37.1476847 0.18035468,28.9433498 0.18035468,18.8225616 C0.18035468,8.7017734 8.38468966,0.497438424 18.5054778,0.497438424 C28.626266,0.497438424 36.830601,8.7017734 36.830601,18.8225616" id="Fill-97" fill="#135942" mask="url(#mask-6)"></path>
                    </g>
                    <g id="Group-102" transform="translate(0.000000, 5.911330)">
                        <mask id="mask-8" fill="white">
                            <use xlink:href="#path-7"></use>
                        </mask>
                        <g id="Clip-101"></g>
                        <path d="M36.830601,18.8225616 C36.830601,28.9433498 28.626266,37.1476847 18.5054778,37.1476847 C8.38468966,37.1476847 0.18035468,28.9433498 0.18035468,18.8225616 C0.18035468,8.7017734 8.38468966,0.497438424 18.5054778,0.497438424 C28.626266,0.497438424 36.830601,8.7017734 36.830601,18.8225616 Z" id="Stroke-100" stroke="#2CD098" mask="url(#mask-8)"></path>
                    </g>
                    <polyline id="Stroke-103" stroke="#2CD098" stroke-width="2" stroke-linecap="round" stroke-linejoin="round" points="23.6645911 17.6402956 18.5051823 22.7997044 13.3463645 17.6402956"></polyline>
                    <path d="M18,22.7994089 L18,31.8271921" id="Stroke-105" stroke="#2CD098" stroke-width="2" stroke-linecap="round" stroke-linejoin="round"></path>
                    <path d="M13.346601,24 L23.6648276,24" id="Stroke-107" stroke="#2CD098" stroke-width="2" stroke-linecap="round" stroke-linejoin="round"></path>
                    <path d="M13.346601,28 L23.6648276,28" id="Stroke-109" stroke="#2CD098" stroke-width="2" stroke-linecap="round" stroke-linejoin="round"></path>
                </g>
            </g>
        </g>
    </g>
</svg>