<?xml version="1.0" encoding="UTF-8"?>
<svg width="66px" height="59px" viewBox="0 0 66 59" version="1.1" xmlns="http://www.w3.org/2000/svg" xmlns:xlink="http://www.w3.org/1999/xlink">
    <!-- Generator: Sketch 49 (51002) - http://www.bohemiancoding.com/sketch -->
    <title>Page 1</title>
    <desc>Created with Sketch.</desc>
    <defs>
        <polygon id="path-1" points="8.14163551e-16 16.4996333 8.14163551e-16 0.366666667 65.9998533 0.366666667 65.9998533 16.4996333 0 16.4996333"></polygon>
        <polygon id="path-3" points="8.14163551e-16 16.8663 8.14163551e-16 0.732966667 65.9998533 0.732966667 65.9998533 16.8663"></polygon>
        <polygon id="path-5" points="8.14163551e-16 16.6829667 8.14163551e-16 0.549633333 65.9998533 0.549633333 65.9998533 16.6829667 0 16.6829667"></polygon>
    </defs>
    <g id="Page-1" stroke="none" stroke-width="1" fill="none" fill-rule="evenodd" opacity="0.8">
        <g id="h5" transform="translate(-624.000000, -6341.000000)">
            <g id="Group-8" transform="translate(60.000000, 2420.000000)">
                <g id="Page-1" transform="translate(564.000000, 3921.000000)">
                    <g id="Group-3" transform="translate(0.000000, 0.366667)">
                        <mask id="mask-2" fill="white">
                            <use xlink:href="#path-1"></use>
                        </mask>
                        <g id="Clip-2"></g>
                        <path d="M55.7331867,11.3663 C54.1132533,11.3663 52.7998533,10.0536333 52.7998533,8.43296667 C52.7998533,6.81303333 54.1132533,5.49963333 55.7331867,5.49963333 C57.3538533,5.49963333 58.66652,6.81303333 58.66652,8.43296667 C58.66652,10.0536333 57.3538533,11.3663 55.7331867,11.3663 M46.9331867,11.3663 C45.3132533,11.3663 43.9998533,10.0536333 43.9998533,8.43296667 C43.9998533,6.81303333 45.3132533,5.49963333 46.9331867,5.49963333 C48.5538533,5.49963333 49.86652,6.81303333 49.86652,8.43296667 C49.86652,10.0536333 48.5538533,11.3663 46.9331867,11.3663 M63.06652,0.3663 L2.93318667,0.3663 C1.31325333,0.3663 -0.000146666667,1.6797 -0.000146666667,3.29963333 L-0.000146666667,13.5663 C-0.000146666667,15.1869667 1.31325333,16.4996333 2.93318667,16.4996333 L63.06652,16.4996333 C64.6871867,16.4996333 65.9998533,15.1869667 65.9998533,13.5663 L65.9998533,3.29963333 C65.9998533,1.6797 64.6871867,0.3663 63.06652,0.3663" id="Fill-1" fill="#2CD098" mask="url(#mask-2)"></path>
                    </g>
                    <g id="Group-6" transform="translate(0.000000, 41.433333)">
                        <mask id="mask-4" fill="white">
                            <use xlink:href="#path-3"></use>
                        </mask>
                        <g id="Clip-5"></g>
                        <path d="M55.7331867,11.7329667 C54.1132533,11.7329667 52.7998533,10.4203 52.7998533,8.79963333 C52.7998533,7.1797 54.1132533,5.8663 55.7331867,5.8663 C57.3538533,5.8663 58.66652,7.1797 58.66652,8.79963333 C58.66652,10.4203 57.3538533,11.7329667 55.7331867,11.7329667 M46.9331867,11.7329667 C45.3132533,11.7329667 43.9998533,10.4203 43.9998533,8.79963333 C43.9998533,7.1797 45.3132533,5.8663 46.9331867,5.8663 C48.5538533,5.8663 49.86652,7.1797 49.86652,8.79963333 C49.86652,10.4203 48.5538533,11.7329667 46.9331867,11.7329667 M63.06652,0.732966667 L2.93318667,0.732966667 C1.31325333,0.732966667 -0.000146666667,2.04636667 -0.000146666667,3.6663 L-0.000146666667,13.9329667 C-0.000146666667,15.5536333 1.31325333,16.8663 2.93318667,16.8663 L63.06652,16.8663 C64.6871867,16.8663 65.9998533,15.5536333 65.9998533,13.9329667 L65.9998533,3.6663 C65.9998533,2.04636667 64.6871867,0.732966667 63.06652,0.732966667" id="Fill-4" fill="#2CD098" mask="url(#mask-4)"></path>
                    </g>
                    <g id="Group-9" transform="translate(0.000000, 20.900000)">
                        <mask id="mask-6" fill="white">
                            <use xlink:href="#path-5"></use>
                        </mask>
                        <g id="Clip-8"></g>
                        <path d="M55.7331867,11.5496333 C54.1132533,11.5496333 52.7998533,10.2369667 52.7998533,8.6163 C52.7998533,6.99636667 54.1132533,5.68296667 55.7331867,5.68296667 C57.3538533,5.68296667 58.66652,6.99636667 58.66652,8.6163 C58.66652,10.2369667 57.3538533,11.5496333 55.7331867,11.5496333 M46.9331867,11.5496333 C45.3132533,11.5496333 43.9998533,10.2369667 43.9998533,8.6163 C43.9998533,6.99636667 45.3132533,5.68296667 46.9331867,5.68296667 C48.5538533,5.68296667 49.86652,6.99636667 49.86652,8.6163 C49.86652,10.2369667 48.5538533,11.5496333 46.9331867,11.5496333 M63.06652,0.549633333 L2.93318667,0.549633333 C1.31325333,0.549633333 -0.000146666667,1.86303333 -0.000146666667,3.48296667 L-0.000146666667,13.7496333 C-0.000146666667,15.3703 1.31325333,16.6829667 2.93318667,16.6829667 L63.06652,16.6829667 C64.6871867,16.6829667 65.9998533,15.3703 65.9998533,13.7496333 L65.9998533,3.48296667 C65.9998533,1.86303333 64.6871867,0.549633333 63.06652,0.549633333" id="Fill-7" fill="#2CD098" mask="url(#mask-6)"></path>
                    </g>
                </g>
            </g>
        </g>
    </g>
</svg>