<?xml version="1.0" encoding="UTF-8"?>
<svg width="55px" height="56px" viewBox="0 0 55 56" version="1.1" xmlns="http://www.w3.org/2000/svg" xmlns:xlink="http://www.w3.org/1999/xlink">
    <!-- Generator: Sketch 49 (51002) - http://www.bohemiancoding.com/sketch -->
    <title>Page 1</title>
    <desc>Created with Sketch.</desc>
    <defs></defs>
    <g id="Page-1" stroke="none" stroke-width="1" fill="none" fill-rule="evenodd" opacity="0.8">
        <g id="web" transform="translate(-993.000000, -832.000000)" fill="#2CD098">
            <g id="Page-1" transform="translate(993.000000, 832.000000)">
                <path d="M40.6407222,55.5009231 C40.0155556,55.5009231 39.3891667,55.2603077 38.9125,54.7796923 L29.6407222,45.4436923 L20.3689444,54.7796923 C19.4156111,55.7415385 17.8658333,55.7415385 16.9125,54.7796923 C15.9573333,53.8190769 15.9573333,52.2596923 16.9125,51.2990769 L27.9125,40.2221538 C28.8658333,39.2603077 30.4156111,39.2603077 31.3689444,40.2221538 L42.3689444,51.2990769 C43.3241111,52.2596923 43.3241111,53.8190769 42.3689444,54.7796923 C41.8922778,55.2603077 41.2658889,55.5009231 40.6407222,55.5009231" id="Fill-1"></path>
                <path d="M54.6043667,25.3308308 L43.6929778,1.4336 C43.1289222,0.198523077 41.6775333,-0.3424 40.4510333,0.2256 L37.8495333,1.42990769 C36.6230333,1.99790769 36.0852556,3.45944615 36.6499222,4.69513846 L37.7872,7.18683077 L7.14058889,21.3763692 C5.91408889,21.9449846 5.37631111,23.4065231 5.94036667,24.6416 L7.41986667,27.8816 L1.42425556,30.6576 C0.197144444,31.2249846 -0.340022222,32.6871385 0.224644444,33.9222154 L1.95958889,37.7240615 C2.52364444,38.9591385 3.97503333,39.4994462 5.20214444,38.9320615 L11.1983667,36.1554462 L12.5342556,39.0822154 C13.0983111,40.3172923 14.5497,40.8576 15.7762,40.2902154 L46.4234222,26.1000615 L47.5613111,28.5917538 C48.1247556,29.8268308 49.5761444,30.3677538 50.8032556,29.7997538 L53.4047556,28.5954462 C54.6312556,28.0274462 55.1684222,26.5652923 54.6043667,25.3308308" id="Fill-4"></path>
            </g>
        </g>
    </g>
</svg>